<svg width="24" height="24" viewBox="0 0 24 24" fill="none" xmlns="http://www.w3.org/2000/svg">
<path fill-rule="evenodd" clip-rule="evenodd" d="M12.0002 4.00049L11.9602 4.00049C10.2754 4.00048 8.95704 4.00048 7.91152 4.10002C6.84867 4.20122 5.98204 4.41113 5.23576 4.88763C4.78352 5.17638 4.38178 5.52844 4.04733 5.93299C3.48949 6.60774 3.23693 7.40064 3.11657 8.26612C2.99997 9.10464 2.99998 10.0797 3 11.1538L3 11.1952V12.8064L3 12.8908C2.99996 14.3253 2.99993 15.3071 3.11878 16.0524C3.2516 16.8853 3.53411 17.4479 4.04733 18.0687C4.38178 18.4732 4.78352 18.8253 5.23576 19.114C5.98204 19.5905 6.84867 19.8004 7.91152 19.9016C8.95703 20.0012 10.2754 20.0012 11.9602 20.0012H12.0002H12.0403C13.7251 20.0012 15.0434 20.0012 16.0889 19.9016C17.1518 19.8004 18.0184 19.5905 18.7647 19.114C19.2169 18.8253 19.6187 18.4732 19.9531 18.0687C20.4663 17.4479 20.7488 16.8853 20.8817 16.0524C21.0005 15.3071 21.0005 14.3253 21.0004 12.8908V12.8064V11.1952V11.1538C21.0005 10.0796 21.0005 9.10463 20.8839 8.26612C20.7635 7.40064 20.511 6.60774 19.9531 5.93299C19.6187 5.52844 19.2169 5.17638 18.7647 4.88763C18.0184 4.41113 17.1518 4.20122 16.0889 4.10002C15.0434 4.00048 13.725 4.00048 12.0402 4.00049L12.0002 4.00049ZM6.04298 6.1519C6.50154 5.85912 7.09666 5.68439 8.05369 5.59327C9.0198 5.50129 10.2668 5.50049 12.0002 5.50049C13.7336 5.50049 14.9807 5.50129 15.9468 5.59327C16.9038 5.68439 17.4989 5.85912 17.9575 6.1519C18.2834 6.36004 18.5661 6.6094 18.797 6.88876C18.9309 7.05063 19.0412 7.23163 19.1314 7.4399L17.9945 8.41325C16.4515 9.73416 15.3481 10.6769 14.3972 11.298C13.4669 11.9057 12.753 12.1569 12.0002 12.1569C11.2475 12.1569 10.5336 11.9057 9.6033 11.298C8.65232 10.6769 7.54891 9.73416 6.00599 8.41325L4.86905 7.4399C4.95927 7.23163 5.06958 7.05063 5.2034 6.88876C5.43436 6.6094 5.717 6.36004 6.04298 6.1519ZM4.53804 9.13112C4.50079 9.71567 4.5 10.3913 4.5 11.1952V12.8064C4.5 14.3467 4.5024 15.2038 4.60007 15.8162C4.68609 16.3556 4.84125 16.6749 5.2034 17.1129C5.43436 17.3923 5.717 17.6416 6.04298 17.8498C6.50154 18.1425 7.09666 18.3173 8.05369 18.4084C9.0198 18.5004 10.2668 18.5012 12.0002 18.5012C13.7336 18.5012 14.9807 18.5004 15.9468 18.4084C16.9038 18.3173 17.4989 18.1425 17.9575 17.8498C18.2834 17.6416 18.5661 17.3923 18.797 17.1129C19.1592 16.6749 19.3144 16.3556 19.4004 15.8162C19.4981 15.2038 19.5004 14.3467 19.5004 12.8064V11.1952C19.5004 10.3913 19.4997 9.71567 19.4624 9.13112L18.97 9.55271L18.9294 9.58742C17.436 10.866 16.2595 11.8732 15.2175 12.5539C14.1453 13.2542 13.146 13.6569 12.0002 13.6569C10.8544 13.6569 9.85517 13.2542 8.783 12.5539C7.74094 11.8732 6.56447 10.866 5.07104 9.58743L5.07102 9.58741L5.03048 9.55271L4.53804 9.13112Z" fill="#464542"/>
</svg>
