<svg width="24" height="24" viewBox="0 0 24 24" fill="none" xmlns="http://www.w3.org/2000/svg">
<path fill-rule="evenodd" clip-rule="evenodd" d="M21.8202 7.79967L17.1367 3.11613C16.7569 2.79967 16.2506 2.54651 15.7443 2.54651H9.16199C8.65566 2.54651 8.08604 2.73638 7.70629 3.11613L3.02275 7.79967C2.643 8.17942 2.45312 8.68575 2.45312 9.25537V15.8376C2.45312 16.344 2.643 16.9136 3.02275 17.2933L7.70629 21.9769C8.08604 22.3566 8.59237 22.5465 9.16199 22.5465H15.7443C16.2506 22.5465 16.8202 22.3566 17.2 21.9769L21.8835 17.2933C22.2633 16.9136 22.4531 16.4073 22.4531 15.8376V9.25537C22.4531 8.74904 22.2 8.17942 21.8202 7.79967ZM11.2506 7.73638C11.2506 7.04018 11.8202 6.53385 12.4531 6.53385C13.1493 6.53385 13.6557 7.10347 13.6557 7.73638V12.3566C13.6557 13.0528 13.086 13.5592 12.4531 13.5592C11.7569 13.5592 11.2506 12.9895 11.2506 12.3566V7.73638ZM12.4531 18.4326C11.6303 18.4326 10.9974 17.7997 10.9974 16.9769C10.9974 16.1541 11.6303 15.5212 12.4531 15.5212C13.2759 15.5212 13.9088 16.1541 13.9088 16.9769C13.9088 17.7364 13.2126 18.4326 12.4531 18.4326Z" fill="#D4483E"/>
</svg>
