<svg width="24" height="24" viewBox="0 0 24 24" fill="none" xmlns="http://www.w3.org/2000/svg">
<path fill-rule="evenodd" clip-rule="evenodd" d="M15.8073 4.13519H9.29185L4.68475 8.74229V15.2577L9.29185 19.8648H15.8073L20.4144 15.2577V8.74229L15.8073 4.13519ZM9.29185 2.13519C8.76142 2.13519 8.25271 2.34591 7.87764 2.72098L3.27054 7.32807C2.89547 7.70315 2.68475 8.21185 2.68475 8.74229V15.2577C2.68475 15.7882 2.89547 16.2969 3.27054 16.672L7.87763 21.2791C8.25271 21.6541 8.76142 21.8648 9.29185 21.8648H15.8073C16.3377 21.8648 16.8464 21.6541 17.2215 21.2791L21.8286 16.672C22.2037 16.2969 22.4144 15.7882 22.4144 15.2577V8.74229C22.4144 8.21185 22.2037 7.70315 21.8286 7.32807L17.2215 2.72098C16.8464 2.34591 16.3377 2.13519 15.8073 2.13519H9.29185Z" fill="#D4483E"/>
<path d="M13.753 15.6128C13.753 16.2775 13.2142 16.8163 12.5496 16.8163C11.8849 16.8163 11.3461 16.2775 11.3461 15.6128C11.3461 14.9482 11.8849 14.4094 12.5496 14.4094C13.2142 14.4094 13.753 14.9482 13.753 15.6128Z" fill="#D4483E"/>
<path fill-rule="evenodd" clip-rule="evenodd" d="M12.5493 12.845C11.997 12.845 11.5493 12.3973 11.5493 11.8449V8.04492C11.5493 7.49264 11.997 7.04492 12.5493 7.04492C13.1016 7.04492 13.5493 7.49264 13.5493 8.04492V11.8449C13.5493 12.3973 13.1016 12.845 12.5493 12.845Z" fill="#D4483E"/>
</svg>
