<svg width="21" height="21" viewBox="0 0 21 21" fill="none" xmlns="http://www.w3.org/2000/svg">
<path fill-rule="evenodd" clip-rule="evenodd" d="M13.6721 2.58874H7.15666L2.54956 7.19584V13.7112L7.15666 18.3183H13.6721L18.2792 13.7112V7.19584L13.6721 2.58874ZM7.15666 0.588745C6.62623 0.588745 6.11752 0.799459 5.74245 1.17453L1.13535 5.78162C0.760275 6.1567 0.549561 6.6654 0.549561 7.19584V13.7112C0.549561 14.2417 0.760274 14.7504 1.13535 15.1255L5.74244 19.7326C6.11752 20.1076 6.62623 20.3183 7.15666 20.3183H13.6721C14.2025 20.3183 14.7112 20.1076 15.0863 19.7326L19.6934 15.1255C20.0685 14.7504 20.2792 14.2417 20.2792 13.7112V7.19584C20.2792 6.6654 20.0685 6.1567 19.6934 5.78162L15.0863 1.17453C14.7112 0.799459 14.2025 0.588745 13.6721 0.588745H7.15666Z" fill="#D4483E"/>
<path d="M11.6178 14.0663C11.6178 14.731 11.079 15.2698 10.4144 15.2698C9.74972 15.2698 9.21094 14.731 9.21094 14.0663C9.21094 13.4017 9.74972 12.8629 10.4144 12.8629C11.079 12.8629 11.6178 13.4017 11.6178 14.0663Z" fill="#D4483E"/>
<path fill-rule="evenodd" clip-rule="evenodd" d="M10.4141 11.2985C9.86178 11.2985 9.41406 10.8508 9.41406 10.2985V6.49847C9.41406 5.94619 9.86178 5.49847 10.4141 5.49847C10.9664 5.49847 11.4141 5.94619 11.4141 6.49847V10.2985C11.4141 10.8508 10.9664 11.2985 10.4141 11.2985Z" fill="#D4483E"/>
</svg>
