<svg width="24" height="24" viewBox="0 0 24 24" fill="none" xmlns="http://www.w3.org/2000/svg">
<g clip-path="url(#clip0_3052_9608)">
<path fillRule="evenodd" clipRule="evenodd" d="M15.6721 4.58874H9.15666L4.54956 9.19584V15.7112L9.15666 20.3183H15.6721L20.2792 15.7112V9.19584L15.6721 4.58874ZM9.15666 2.58875C8.62623 2.58875 8.11752 2.79946 7.74245 3.17453L3.13535 7.78162C2.76027 8.1567 2.54956 8.6654 2.54956 9.19584V15.7112C2.54956 16.2417 2.76027 16.7504 3.13535 17.1255L7.74244 21.7326C8.11752 22.1076 8.62623 22.3183 9.15666 22.3183H15.6721C16.2025 22.3183 16.7112 22.1076 17.0863 21.7326L21.6934 17.1255C22.0685 16.7504 22.2792 16.2417 22.2792 15.7112V9.19584C22.2792 8.6654 22.0685 8.1567 21.6934 7.78162L17.0863 3.17453C16.7112 2.79946 16.2025 2.58875 15.6721 2.58875H9.15666Z" fill="#D4483E"/>
<path d="M13.6178 16.0663C13.6178 16.731 13.079 17.2698 12.4144 17.2698C11.7497 17.2698 11.2109 16.731 11.2109 16.0663C11.2109 15.4017 11.7497 14.8629 12.4144 14.8629C13.079 14.8629 13.6178 15.4017 13.6178 16.0663Z" fill="#D4483E"/>
<path fillRule="evenodd" clipRule="evenodd" d="M12.4141 13.2985C11.8618 13.2985 11.4141 12.8508 11.4141 12.2985V8.49847C11.4141 7.94619 11.8618 7.49847 12.4141 7.49847C12.9664 7.49847 13.4141 7.94619 13.4141 8.49847V12.2985C13.4141 12.8508 12.9664 13.2985 12.4141 13.2985Z" fill="#D4483E"/>
</g>
<defs>
<clipPath id="clip0_3052_9608">
<rect width="20" height="20" fill="white" transform="translate(2.41406 2.45349)"/>
</clipPath>
</defs>
</svg>
