<svg width="24" height="24" viewBox="0 0 24 24" fill="none" xmlns="http://www.w3.org/2000/svg">
<path fillRule="evenodd" clipRule="evenodd" d="M4.75497 9.27153C4.17556 10.3072 3.85007 11.4776 3.85007 12.7169C3.85007 16.8831 7.5606 20.3331 12.2326 20.3331C16.9045 20.3331 20.6151 16.8831 20.6151 12.7169C20.6151 11.5314 20.3175 10.4096 19.7851 9.40867L20.7693 8.8965C21.3824 10.0494 21.7271 11.3463 21.7271 12.7169C21.7271 17.5713 17.4338 21.4331 12.2326 21.4331C7.03135 21.4331 2.73804 17.5713 2.73804 12.7169C2.73804 11.2836 3.11519 9.93076 3.782 8.73889L4.75497 9.27153Z" fill="#464542"/>
<path fillRule="evenodd" clipRule="evenodd" d="M12.2323 5.1C10.8562 5.1 9.55985 5.40148 8.41672 5.93341L7.94336 4.93804C9.23329 4.3378 10.6911 4 12.2323 4C13.7727 4 15.186 4.32701 16.4604 4.90957L15.9939 5.90811C14.8635 5.39136 13.6092 5.1 12.2323 5.1Z" fill="#464542"/>
<path fillRule="evenodd" clipRule="evenodd" d="M7.07396 5.17157C6.63567 5.19659 5.9633 5.36159 4.95748 5.7234C3.58873 6.21575 2.97046 6.66833 2.73416 6.99995C2.62789 7.14907 2.60781 7.26076 2.61271 7.34623C2.61814 7.44071 2.65805 7.55946 2.76058 7.70596C2.97551 8.01304 3.38067 8.32333 3.84756 8.60347C4.22401 8.82934 4.59189 9.00805 4.85968 9.13814C4.91669 9.16583 4.96915 9.19132 5.0162 9.21459C5.40611 9.40743 5.72219 9.54742 5.98859 9.62365C6.25505 9.6999 6.41302 9.69467 6.51299 9.66262C6.59796 9.63538 6.71656 9.56485 6.85245 9.33095C6.99447 9.08651 7.13406 8.69776 7.25519 8.09864C7.27516 7.99991 7.29474 7.90359 7.31385 7.80964C7.44792 7.1503 7.55833 6.60731 7.60979 6.15971C7.67181 5.62025 7.62443 5.37571 7.56444 5.27662C7.5641 5.27606 7.56372 5.2754 7.5633 5.27467C7.54991 5.25162 7.48965 5.14785 7.07396 5.17157ZM8.40383 8.02782C8.38461 8.12223 8.36515 8.21779 8.34563 8.31437C8.21402 8.96526 8.0448 9.48629 7.8166 9.87906C7.58227 10.2824 7.26924 10.5765 6.85584 10.709C6.45745 10.8368 6.0503 10.7864 5.67958 10.6803C5.30881 10.5742 4.91563 10.3947 4.51888 10.1985C4.47988 10.1792 4.43369 10.1568 4.38147 10.1314C4.11591 10.0026 3.6945 9.79817 3.27085 9.54397C2.77421 9.24599 2.20003 8.83752 1.84629 8.33209C1.66449 8.07234 1.52273 7.7614 1.50248 7.40861C1.4817 7.0468 1.59191 6.69364 1.82523 6.3662C2.26811 5.74468 3.16619 5.19727 4.57745 4.68963C5.60095 4.32146 6.40087 4.10816 7.0099 4.0734C7.62827 4.03811 8.20013 4.18559 8.5185 4.7115C8.78793 5.15658 8.77705 5.74161 8.7147 6.284C8.65743 6.78215 8.53618 7.3777 8.40383 8.02782Z" fill="#464542"/>
<path fillRule="evenodd" clipRule="evenodd" d="M16.926 5.17139C17.3643 5.1964 18.0367 5.36141 19.0425 5.72321C20.4113 6.21556 21.0295 6.66815 21.2658 6.99976C21.3721 7.14889 21.3922 7.26058 21.3873 7.34604C21.3819 7.44052 21.342 7.55927 21.2394 7.70577C21.0245 8.01286 20.6193 8.32315 20.1524 8.60328C19.776 8.82915 19.4081 9.00786 19.1403 9.13795C19.0833 9.16564 19.0308 9.19113 18.9838 9.2144C18.5939 9.40725 18.2778 9.54724 18.0114 9.62347C17.7449 9.69972 17.587 9.69449 17.487 9.66244C17.402 9.6352 17.2834 9.56467 17.1475 9.33077C17.0055 9.08633 16.8659 8.69758 16.7448 8.09846C16.7248 7.99972 16.7053 7.90341 16.6862 7.80945C16.5521 7.15012 16.4417 6.60712 16.3902 6.15953C16.3282 5.62007 16.3756 5.37552 16.4356 5.27644C16.4359 5.27587 16.4363 5.27522 16.4367 5.27449C16.4501 5.25143 16.5103 5.14766 16.926 5.17139ZM15.5962 8.02764C15.6154 8.12205 15.6348 8.21761 15.6544 8.31419C15.786 8.96508 15.9552 9.4861 16.1834 9.87888C16.4177 10.2822 16.7308 10.5763 17.1442 10.7089C17.5426 10.8366 17.9497 10.7862 18.3204 10.6801C18.6912 10.574 19.0844 10.3945 19.4811 10.1983C19.5201 10.179 19.5663 10.1566 19.6185 10.1312C19.8841 10.0024 20.3055 9.79798 20.7292 9.54379C21.2258 9.2458 21.8 8.83734 22.1537 8.33191C22.3355 8.07216 22.4773 7.76121 22.4975 7.40842C22.5183 7.04662 22.4081 6.69346 22.1748 6.36602C21.7319 5.7445 20.8338 5.19708 19.4226 4.68944C18.3991 4.32128 17.5991 4.10798 16.9901 4.07322C16.3717 4.03792 15.7999 4.1854 15.4815 4.71131C15.2121 5.15639 15.2229 5.74142 15.2853 6.28382C15.3426 6.78197 15.4638 7.37752 15.5962 8.02764Z" fill="#464542"/>
<path fillRule="evenodd" clipRule="evenodd" d="M9.9526 13.2999C9.34796 14.0146 8.99154 14.921 8.99154 15.696C8.99154 16.0747 9.07596 16.3369 9.19757 16.5264C9.31938 16.7161 9.50356 16.872 9.76713 16.9974C10.3191 17.2599 11.1394 17.3528 12.1591 17.3528C13.1789 17.3528 13.9991 17.26 14.5511 16.9975C14.8146 16.8722 14.9988 16.7163 15.1206 16.5265C15.2422 16.337 15.3266 16.0748 15.3266 15.696C15.3266 14.921 14.9702 14.0146 14.3656 13.2999C13.7619 12.5863 12.9744 12.1351 12.1591 12.1351C11.3438 12.1351 10.5563 12.5863 9.9526 13.2999ZM9.09978 12.594C9.84381 11.7145 10.9181 11.0351 12.1591 11.0351C13.4001 11.0351 14.4744 11.7145 15.2184 12.594C15.9615 13.4723 16.4387 14.6214 16.4387 15.696C16.4387 16.2422 16.3147 16.7183 16.0594 17.1161C15.8044 17.5135 15.4432 17.7938 15.0329 17.9889C14.2372 18.3673 13.1956 18.4528 12.1591 18.4528C11.1225 18.4528 10.0809 18.3672 9.28525 17.9887C8.87497 17.7936 8.51382 17.5133 8.25876 17.1159C8.00351 16.7182 7.87952 16.2421 7.87952 15.696C7.87952 14.6214 8.35672 13.4723 9.09978 12.594Z" fill="#464542"/>
<path d="M13.4536 14.1879C13.0406 14.1879 12.7063 14.5268 12.7063 14.9443C12.7063 15.3619 13.041 15.7008 13.4536 15.7008C13.8661 15.7008 14.2008 15.3619 14.2008 14.9443C14.2008 14.5268 13.8661 14.1879 13.4536 14.1879Z" fill="#464542"/>
<path d="M10.8641 14.1879C10.4511 14.1879 10.1168 14.5268 10.1168 14.9443C10.1168 15.3619 10.4516 15.7008 10.8641 15.7008C11.2766 15.7008 11.6114 15.3619 11.6114 14.9443C11.6114 14.5268 11.2766 14.1879 10.8641 14.1879Z" fill="#464542"/>
</svg>
