<svg width="20" height="20" viewBox="0 0 20 20" fill="none" xmlns="http://www.w3.org/2000/svg">
<path d="M6 12.9663C6 12.9663 7.6 14.9663 10 14.9663C12.4 14.9663 14 12.9663 14 12.9663M1 12.5663V10.0964C1 8.9477 1 8.37334 1.14805 7.84441C1.2792 7.37587 1.49473 6.9352 1.78405 6.54402C2.11067 6.10242 2.56404 5.7498 3.47078 5.04456L6.07078 3.02233C7.47608 1.92932 8.17873 1.38282 8.95461 1.17274C9.63921 0.987382 10.3608 0.987382 11.0454 1.17274C11.8213 1.38282 12.5239 1.92933 13.9292 3.02234L16.5292 5.04456C17.436 5.7498 17.8893 6.10242 18.2159 6.54402C18.5053 6.9352 18.7208 7.37587 18.8519 7.84441C19 8.37334 19 8.9477 19 10.0964V12.5663C19 14.8065 19 15.9266 18.564 16.7822C18.1805 17.5349 17.5686 18.1468 16.816 18.5303C15.9603 18.9663 14.8402 18.9663 12.6 18.9663H7.4C5.15979 18.9663 4.03969 18.9663 3.18404 18.5303C2.43139 18.1468 1.81947 17.5349 1.43597 16.7822C1 15.9266 1 14.8065 1 12.5663Z" stroke="#464542" stroke-width="1.5" stroke-linecap="round" stroke-linejoin="round"/>
</svg>
