<svg width="24" height="24" viewBox="0 0 24 24" fill="none" xmlns="http://www.w3.org/2000/svg">
<path fill-rule="evenodd" clip-rule="evenodd" d="M12 3.25H11.9594C10.1189 3.24999 8.68306 3.24999 7.54537 3.35956C6.38986 3.47084 5.45578 3.7011 4.65419 4.21878C4.16648 4.53375 3.73391 4.91736 3.37421 5.35742C2.778 6.08686 2.50636 6.94537 2.37636 7.89097C2.24997 8.81024 2.24998 9.88097 2.25 11.0696V11.0696V11.1111V12.8889V12.9737C2.24996 14.564 2.24993 15.6415 2.37852 16.457C2.52076 17.3592 2.82187 17.9668 3.37421 18.6426C3.73391 19.0826 4.16648 19.4663 4.65419 19.7812C5.45578 20.2989 6.38986 20.5292 7.54537 20.6404C8.68304 20.75 10.1188 20.75 11.9593 20.75H11.9593H12H12.0407H12.0407C13.8812 20.75 15.317 20.75 16.4546 20.6404C17.6101 20.5292 18.5442 20.2989 19.3458 19.7812C19.8335 19.4663 20.2661 19.0826 20.6258 18.6426C21.1781 17.9668 21.4792 17.3592 21.6215 16.457C21.7501 15.6415 21.75 14.5641 21.75 12.9737V12.9737V12.8889V11.1111V11.0696C21.75 9.88099 21.75 8.81024 21.6236 7.89097C21.4936 6.94537 21.222 6.08686 20.6258 5.35742C20.2661 4.91736 19.8335 4.53375 19.3458 4.21878C18.5442 3.7011 17.6101 3.47084 16.4546 3.35956C15.3169 3.24999 13.8811 3.24999 12.0406 3.25H12ZM5.46796 5.47885C5.9807 5.14772 6.64122 4.95357 7.68916 4.85265C8.74655 4.75082 10.1103 4.75 12 4.75C13.8897 4.75 15.2535 4.75082 16.3108 4.85265C17.3588 4.95357 18.0193 5.14772 18.532 5.47885C18.8933 5.71214 19.2073 5.99215 19.4644 6.30671C19.6277 6.50648 19.7593 6.73112 19.8645 6.99119L18.5801 8.10336C16.8983 9.55967 15.6907 10.6034 14.6488 11.2918C13.6273 11.9667 12.8367 12.25 12 12.25C11.1633 12.25 10.3727 11.9667 9.35125 11.2918C8.30927 10.6034 7.10167 9.55966 5.41989 8.10336L4.13554 6.9912C4.24073 6.73112 4.37233 6.50648 4.53562 6.30671C4.79272 5.99215 5.10673 5.71214 5.46796 5.47885ZM3.80139 8.68607C3.75089 9.36778 3.75 10.1604 3.75 11.1111V12.8889C3.75 14.585 3.75234 15.5392 3.86021 16.2234C3.9567 16.8354 4.13305 17.2008 4.53562 17.6933C4.79272 18.0078 5.10673 18.2879 5.46796 18.5212C5.9807 18.8523 6.64122 19.0464 7.68916 19.1474C8.74655 19.2492 10.1103 19.25 12 19.25C13.8897 19.25 15.2535 19.2492 16.3108 19.1474C17.3588 19.0464 18.0193 18.8523 18.532 18.5212C18.8933 18.2879 19.2073 18.0078 19.4644 17.6933C19.867 17.2008 20.0433 16.8354 20.1398 16.2234C20.2477 15.5392 20.25 14.585 20.25 12.8889V11.1111C20.25 10.1604 20.2491 9.36778 20.1986 8.68606L19.562 9.2373L19.5212 9.27264C17.8892 10.6859 16.6086 11.7948 15.4756 12.5433C14.3126 13.3117 13.2344 13.75 12 13.75C10.7656 13.75 9.68738 13.3117 8.52439 12.5433C7.39135 11.7948 6.11085 10.6859 4.47879 9.27264L4.43797 9.2373L3.80139 8.68607Z" fill="#464542"/>
</svg>
