<svg width="24" height="24" viewBox="0 0 24 24" fill="none" xmlns="http://www.w3.org/2000/svg">
<path fill-rule="evenodd" clip-rule="evenodd" d="M16.0562 9.71164C16.5443 9.22349 16.5443 8.43203 16.0562 7.94388C15.568 7.45572 14.7766 7.45572 14.2884 7.94388C13.8003 8.43203 13.8003 9.22349 14.2884 9.71164C14.7766 10.1998 15.568 10.1998 16.0562 9.71164ZM17.1168 10.7723C18.1908 9.69836 18.1908 7.95716 17.1168 6.88322C16.0429 5.80927 14.3017 5.80927 13.2278 6.88322C12.3376 7.77336 12.1853 9.12193 12.7707 10.169L10.1688 12.7709C9.12174 12.1855 7.77318 12.3378 6.88303 13.2279C5.80909 14.3019 5.80909 16.0431 6.88303 17.117C7.95697 18.191 9.69818 18.191 10.7721 17.117C11.6622 16.227 11.8146 14.8787 11.2294 13.8317L13.8315 11.2295C14.8785 11.8148 16.2268 11.6623 17.1168 10.7723ZM9.71146 16.0564C10.1996 15.5682 10.1996 14.7768 9.71146 14.2886C9.2233 13.8004 8.43185 13.8004 7.94369 14.2886C7.45554 14.7768 7.45554 15.5682 7.94369 16.0564C8.43185 16.5445 9.2233 16.5445 9.71146 16.0564Z" fill="#464542"/>
<path fill-rule="evenodd" clip-rule="evenodd" d="M16.4635 2.37385C15.3214 2.25011 13.8818 2.25011 12.0452 2.25012H11.9548C10.1182 2.25011 8.67861 2.25011 7.53648 2.37385C6.37094 2.50013 5.42656 2.76245 4.62024 3.34827C4.13209 3.70293 3.70281 4.13221 3.34815 4.62036C2.76232 5.42668 2.50001 6.37106 2.37373 7.5366C2.24999 8.67873 2.24999 10.1183 2.25 11.9549V12.0454C2.24999 13.8819 2.24999 15.3215 2.37373 16.4636C2.50001 17.6292 2.76232 18.5736 3.34815 19.3799C3.70281 19.868 4.13209 20.2973 4.62024 20.652C5.42656 21.2378 6.37094 21.5001 7.53648 21.6264C8.67859 21.7501 10.1182 21.7501 11.9547 21.7501H12.0453C13.8818 21.7501 15.3214 21.7501 16.4635 21.6264C17.6291 21.5001 18.5734 21.2378 19.3798 20.652C19.8679 20.2973 20.2972 19.868 20.6518 19.3799C21.2377 18.5736 21.5 17.6292 21.6263 16.4636C21.75 15.3215 21.75 13.882 21.75 12.0455V11.9548C21.75 10.1184 21.75 8.67871 21.6263 7.5366C21.5 6.37106 21.2377 5.42668 20.6518 4.62036C20.2972 4.13221 19.8679 3.70293 19.3798 3.34827C18.5734 2.76245 17.6291 2.50013 16.4635 2.37385ZM5.50191 4.5618C6.00992 4.19271 6.66013 3.97757 7.69804 3.86512C8.74999 3.75115 10.1084 3.75012 12 3.75012C13.8916 3.75012 15.25 3.75115 16.302 3.86512C17.3399 3.97757 17.9901 4.19271 18.4981 4.5618C18.8589 4.82394 19.1762 5.14123 19.4383 5.50204C19.8074 6.01004 20.0225 6.66026 20.135 7.69817C20.249 8.75011 20.25 10.1086 20.25 12.0001C20.25 13.8917 20.249 15.2501 20.135 16.3021C20.0225 17.34 19.8074 17.9902 19.4383 18.4982C19.1762 18.859 18.8589 19.1763 18.4981 19.4384C17.9901 19.8075 17.3399 20.0227 16.302 20.1351C15.25 20.2491 13.8916 20.2501 12 20.2501C10.1084 20.2501 8.74999 20.2491 7.69804 20.1351C6.66013 20.0227 6.00992 19.8075 5.50191 19.4384C5.14111 19.1763 4.82382 18.859 4.56168 18.4982C4.19259 17.9902 3.97745 17.34 3.865 16.3021C3.75103 15.2501 3.75 13.8917 3.75 12.0001C3.75 10.1086 3.75103 8.75011 3.865 7.69817C3.97745 6.66026 4.19259 6.01004 4.56168 5.50204C4.82382 5.14123 5.14111 4.82394 5.50191 4.5618Z" fill="#464542"/>
</svg>
