<svg width="20" height="20" viewBox="0 0 20 20" fill="none" xmlns="http://www.w3.org/2000/svg">
<path d="M9.9997 5.03658C9.33507 5.03658 8.79628 5.57537 8.79628 6.24C8.79628 6.90463 9.33507 7.44342 9.9997 7.44342C10.6643 7.44342 11.2031 6.90463 11.2031 6.24C11.2031 5.57537 10.6643 5.03658 9.9997 5.03658Z" fill="#68523D"/>
<path fill-rule="evenodd" clip-rule="evenodd" d="M10.0117 8.8548C10.564 8.8548 11.0117 9.30251 11.0117 9.8548V14.0012C11.0117 14.5534 10.564 15.0012 10.0117 15.0012C9.45943 15.0012 9.01172 14.5534 9.01172 14.0012V9.8548C9.01172 9.30251 9.45943 8.8548 10.0117 8.8548Z" fill="#68523D"/>
<path fill-rule="evenodd" clip-rule="evenodd" d="M10 2C5.58172 2 2 5.58172 2 10C2 14.4183 5.58172 18 10 18C14.4183 18 18 14.4183 18 10C18 5.58172 14.4183 2 10 2ZM0 10C0 4.47715 4.47715 0 10 0C15.5228 0 20 4.47715 20 10C20 15.5228 15.5228 20 10 20C4.47715 20 0 15.5228 0 10Z" fill="#68523D"/>
</svg>
