<svg width="24" height="24" viewBox="0 0 24 24" fill="none" xmlns="http://www.w3.org/2000/svg">
<path d="M12.4138 7.49007C11.7491 7.49007 11.2103 8.02886 11.2103 8.69349C11.2103 9.35812 11.7491 9.89691 12.4138 9.89691C13.0784 9.89691 13.6172 9.35812 13.6172 8.69349C13.6172 8.02886 13.0784 7.49007 12.4138 7.49007Z" fill="#51697E"/>
<path fill-rule="evenodd" clip-rule="evenodd" d="M12.4258 11.3083C12.9781 11.3083 13.4258 11.756 13.4258 12.3083V16.4546C13.4258 17.0069 12.9781 17.4546 12.4258 17.4546C11.8735 17.4546 11.4258 17.0069 11.4258 16.4546V12.3083C11.4258 11.756 11.8735 11.3083 12.4258 11.3083Z" fill="#51697E"/>
<path fill-rule="evenodd" clip-rule="evenodd" d="M12.4141 4.45349C7.99578 4.45349 4.41406 8.03521 4.41406 12.4535C4.41406 16.8718 7.99578 20.4535 12.4141 20.4535C16.8323 20.4535 20.4141 16.8718 20.4141 12.4535C20.4141 8.03521 16.8323 4.45349 12.4141 4.45349ZM2.41406 12.4535C2.41406 6.93064 6.89121 2.45349 12.4141 2.45349C17.9369 2.45349 22.4141 6.93064 22.4141 12.4535C22.4141 17.9763 17.9369 22.4535 12.4141 22.4535C6.89121 22.4535 2.41406 17.9763 2.41406 12.4535Z" fill="#51697E"/>
</svg>
