<svg width="24" height="24" viewBox="0 0 24 24" fill="none" xmlns="http://www.w3.org/2000/svg">
<path d="M11.9997 7.03658C11.3351 7.03658 10.7963 7.57537 10.7963 8.24C10.7963 8.90463 11.3351 9.44342 11.9997 9.44342C12.6643 9.44342 13.2031 8.90463 13.2031 8.24C13.2031 7.57537 12.6643 7.03658 11.9997 7.03658Z" fill="#68523D"/>
<path fill-rule="evenodd" clip-rule="evenodd" d="M12.0117 10.8548C12.564 10.8548 13.0117 11.3025 13.0117 11.8548V16.0012C13.0117 16.5534 12.564 17.0012 12.0117 17.0012C11.4594 17.0012 11.0117 16.5534 11.0117 16.0012V11.8548C11.0117 11.3025 11.4594 10.8548 12.0117 10.8548Z" fill="#68523D"/>
<path fill-rule="evenodd" clip-rule="evenodd" d="M12 4C7.58172 4 4 7.58172 4 12C4 16.4183 7.58172 20 12 20C16.4183 20 20 16.4183 20 12C20 7.58172 16.4183 4 12 4ZM2 12C2 6.47715 6.47715 2 12 2C17.5228 2 22 6.47715 22 12C22 17.5228 17.5228 22 12 22C6.47715 22 2 17.5228 2 12Z" fill="#68523D"/>
</svg>
