<svg width="24" height="24" viewBox="0 0 24 24" fill="none" xmlns="http://www.w3.org/2000/svg">
<path fillRule="evenodd" clipRule="evenodd" d="M12.4141 2.54651C6.91406 2.54651 2.41406 7.04651 2.41406 12.5465C2.41406 18.0465 6.91406 22.5465 12.4141 22.5465C17.9141 22.5465 22.4141 18.0465 22.4141 12.5465C22.4141 7.04651 17.9141 2.54651 12.4141 2.54651ZM12.4141 18.5465C11.7266 18.5465 11.2266 17.984 11.2266 17.359V12.359C11.2266 11.6715 11.7891 11.1715 12.4141 11.1715C13.1016 11.1715 13.6016 11.734 13.6016 12.359V17.359C13.6016 17.984 13.1016 18.5465 12.4141 18.5465ZM12.4141 9.48401C11.6016 9.48401 10.9766 8.85901 10.9766 8.04651C10.9766 7.23401 11.6016 6.60901 12.4141 6.60901C13.2266 6.60901 13.8516 7.23401 13.8516 8.04651C13.8516 8.79651 13.2266 9.48401 12.4141 9.48401Z" fill="#51697E"/>
</svg>
