<svg width="24" height="24" viewBox="0 0 24 24" fill="none" xmlns="http://www.w3.org/2000/svg">
<path fill-rule="evenodd" clip-rule="evenodd" d="M12 20.9998C16.9706 20.9998 21 16.9703 21 11.9998C21 7.30479 17.405 3.44947 12.8176 3.03639C12.3675 2.99587 12 3.36607 12 3.81794C12 4.26981 12.3677 4.63135 12.8169 4.68092C16.4993 5.08732 19.3636 8.20903 19.3636 11.9998C19.3636 16.0666 16.0668 19.3634 12 19.3634C8.20928 19.3634 5.08756 16.499 4.68116 12.8166C4.63159 12.3675 4.27005 11.9998 3.81818 11.9998C3.36631 11.9998 2.99611 12.3673 3.03663 12.8173C3.44972 17.4048 7.30503 20.9998 12 20.9998Z" fill="#51697E"/>
<path d="M12.8169 4.68092L12.762 5.1779L12.8169 4.68092ZM21 11.9998H20.5C20.5 16.6942 16.6944 20.4998 12 20.4998V20.9998V21.4998C17.2467 21.4998 21.5 17.2465 21.5 11.9998H21ZM12.8176 3.03639L12.7727 3.53438C17.1048 3.92446 20.5 7.56589 20.5 11.9998H21H21.5C21.5 7.04368 17.7052 2.97448 12.8624 2.53841L12.8176 3.03639ZM12.8169 4.68092L12.762 5.1779C16.1939 5.55665 18.8636 8.46676 18.8636 11.9998H19.3636H19.8636C19.8636 7.9513 16.8047 4.61799 12.8717 4.18393L12.8169 4.68092ZM19.3636 11.9998H18.8636C18.8636 15.7904 15.7907 18.8634 12 18.8634V19.3634V19.8634C16.343 19.8634 19.8636 16.3427 19.8636 11.9998H19.3636ZM12 19.3634V18.8634C8.46701 18.8634 5.55689 16.1936 5.17814 12.7618L4.68116 12.8166L4.18418 12.8715C4.61824 16.8045 7.95155 19.8634 12 19.8634V19.3634ZM12 20.9998V20.4998C7.56613 20.4998 3.92471 17.1045 3.53462 12.7725L3.03663 12.8173L2.53865 12.8622C2.97473 17.705 7.04393 21.4998 12 21.4998V20.9998ZM4.68116 12.8166L5.17814 12.7618C5.10446 12.0941 4.55858 11.4998 3.81818 11.4998V11.9998V12.4998C3.98152 12.4998 4.15872 12.6408 4.18418 12.8715L4.68116 12.8166ZM12 3.81794H11.5C11.5 4.55834 12.0944 5.10422 12.762 5.1779L12.8169 4.68092L12.8717 4.18393C12.6411 4.15848 12.5 3.98128 12.5 3.81794H12ZM3.81818 11.9998V11.4998C3.10316 11.4998 2.46909 12.0897 2.53865 12.8622L3.03663 12.8173L3.53462 12.7725C3.52312 12.6448 3.62947 12.4998 3.81818 12.4998V11.9998ZM12.8176 3.03639L12.8624 2.53841C12.09 2.46885 11.5 3.10291 11.5 3.81794H12H12.5C12.5 3.62922 12.6451 3.52288 12.7727 3.53438L12.8176 3.03639Z" fill="#51697E"/>
<mask id="mask0_4437_7550" style="mask-type:luminance" maskUnits="userSpaceOnUse" x="3" y="3" width="18" height="18">
<path fill-rule="evenodd" clip-rule="evenodd" d="M12 21C16.9706 21 21 16.9706 21 12C21 7.02944 16.9706 3 12 3V4.63636C16.0668 4.63636 19.3636 7.93318 19.3636 12C19.3636 16.0668 16.0668 19.3636 12 19.3636C7.93318 19.3636 4.63636 16.0668 4.63636 12H3C3 16.9706 7.02944 21 12 21Z" fill="white"/>
</mask>
<g mask="url(#mask0_4437_7550)">
</g>
</svg>
