<svg width="32" height="32" viewBox="0 0 32 32" fill="none" xmlns="http://www.w3.org/2000/svg">
<path d="M24.8491 8.77106L21.8957 4.90234L18.5645 10.905V30.6955L24.152 28.2796C24.7001 28.0401 25.0567 27.5026 25.0567 26.9066V9.3777C25.0567 9.15952 24.9822 8.94666 24.8491 8.77106Z" stroke="#464542" stroke-width="1.5" stroke-linejoin="round"/>
<path d="M7.07422 10.9048V29.1947C7.07422 30.0195 7.74472 30.6953 8.57487 30.6953H18.5633V10.9048H7.07422Z" stroke="#464542" stroke-width="1.5" stroke-linejoin="round"/>
<path d="M21.8892 4.90234H21.8041H10.7886L7.07422 10.905H18.558L21.8892 4.90234Z" stroke="#464542" stroke-width="1.5" stroke-linejoin="round"/>
<path d="M21.804 2.77898C21.804 1.95415 21.1335 1.27832 20.3033 1.27832H12.2839C11.459 1.27832 10.7832 1.94883 10.7832 2.77898V4.90757H21.7987V2.77898H21.804Z" stroke="#464542" stroke-width="1.5" stroke-linejoin="round"/>
<path d="M10.0742 22.3804L10.0742 27.6953" stroke="#464542" stroke-width="1.5" stroke-linecap="round"/>
</svg>
