<svg width="24" height="25" viewBox="0 0 24 25" fill="none" xmlns="http://www.w3.org/2000/svg">
<path fillRule="evenodd" clipRule="evenodd" d="M8.09779 3.95592C8.09779 3.14984 8.75331 2.5 9.55371 2.5H14.7414C15.5475 2.5 16.1973 3.15552 16.1973 3.95592C16.1973 3.97558 16.1962 3.99497 16.1939 4.01402V5.08325L18.0688 7.53916C18.2157 7.73307 18.3015 7.97273 18.3015 8.22457V19.5638C18.3015 20.1454 17.9537 20.6657 17.4253 20.8966L17.4236 20.8973L13.8091 22.4602C13.744 22.4883 13.6747 22.5014 13.6059 22.4999H7.15441C6.34833 22.4999 5.69849 21.8444 5.69849 21.044V9.21242C5.69849 9.12223 5.72363 9.03382 5.77109 8.95712L8.09779 5.19718V3.95592ZM8.85468 5.81805L7.05443 8.72725H13.3268L14.9413 5.81805H8.85468ZM13.1306 9.6977L6.66882 9.69759V21.044C6.66882 21.3107 6.88646 21.5295 7.15441 21.5295H13.1306V9.6977ZM14.1017 21.2765L17.0368 20.0074L17.0375 20.0071C17.2179 19.928 17.3311 19.7532 17.3311 19.5638V8.22457C17.3311 8.19428 17.3206 8.15876 17.2957 8.12562L15.8359 6.21336L14.1017 9.33814V21.2765ZM15.2236 4.84434H9.06812V3.95592C9.06812 3.68798 9.28697 3.47033 9.55371 3.47033H14.7414C14.9955 3.47033 15.2043 3.66709 15.2253 3.91488C15.2241 3.92841 15.2236 3.9421 15.2236 3.95592V4.84434ZM8.12432 16.1507C8.39227 16.1507 8.60949 16.3679 8.60949 16.6358V20.074C8.60949 20.342 8.39227 20.5592 8.12432 20.5592C7.85637 20.5592 7.63915 20.342 7.63915 20.074L7.63915 16.6358C7.63915 16.3679 7.85637 16.1507 8.12432 16.1507Z" fill="#464542"/>
</svg>
