<svg width="24" height="24" viewBox="0 0 24 24" fill="none" xmlns="http://www.w3.org/2000/svg">
<path fill-rule="evenodd" clip-rule="evenodd" d="M7.66526 2.60152C7.66526 1.71482 8.39345 1 9.28257 1H15.0453C15.9408 1 16.6626 1.72107 16.6626 2.60152C16.6626 2.62314 16.6613 2.64447 16.6588 2.66542V3.84158L18.7415 6.54308C18.9047 6.75637 19 7.02 19 7.29702V19.7702C19 20.4099 18.6137 20.9823 18.0267 21.2362L18.0249 21.237L14.0097 22.9562C13.9374 22.9871 13.8603 23.0015 13.7839 22.9999H6.61731C5.72188 22.9999 5 22.2788 5 21.3984V8.38366C5 8.28445 5.02793 8.1872 5.08065 8.10283L7.66526 3.9669V2.60152ZM8.50605 4.64986L6.50625 7.84998H13.4739L15.2674 4.64986H8.50605ZM13.256 8.91747L6.07789 8.91735V21.3984C6.07789 21.6918 6.31966 21.9325 6.61731 21.9325H13.256V8.91747ZM14.3347 21.6541L17.5952 20.2581L17.596 20.2578C17.7963 20.1708 17.9221 19.9785 17.9221 19.7702V7.29702C17.9221 7.26371 17.9105 7.22464 17.8828 7.18818V7.18818L16.2611 5.0847L14.3347 8.52195V21.6541ZM15.5809 3.57877H8.74316V2.60152C8.74316 2.30678 8.98626 2.06737 9.28257 2.06737H15.0453C15.3276 2.06737 15.5595 2.2838 15.5828 2.55637C15.5816 2.57125 15.5809 2.58631 15.5809 2.60152V3.57877ZM7.69474 16.0158C7.99239 16.0158 8.23368 16.2547 8.23368 16.5494V20.3314C8.23368 20.6262 7.99239 20.8651 7.69474 20.8651C7.39708 20.8651 7.15579 20.6262 7.15579 20.3314L7.15579 16.5494C7.15579 16.2547 7.39708 16.0158 7.69474 16.0158Z" fill="#464542"/>
</svg>
