<svg width="14" height="22" viewBox="0 0 14 22" fill="none" xmlns="http://www.w3.org/2000/svg">
<path fill-rule="evenodd" clip-rule="evenodd" d="M2.66526 1.60152C2.66526 0.714824 3.39345 0 4.28257 0H10.0453C10.9408 0 11.6626 0.721074 11.6626 1.60152C11.6626 1.62314 11.6613 1.64447 11.6588 1.66542V2.84158L13.7415 5.54308C13.9047 5.75637 14 6.02 14 6.29702V18.7702C14 19.4099 13.6137 19.9823 13.0267 20.2362L13.0249 20.237L9.00968 21.9562C8.93736 21.9871 8.86033 22.0015 8.78389 21.9999H1.61731C0.721875 21.9999 0 21.2788 0 20.3984V7.38366C0 7.28445 0.0279289 7.1872 0.080651 7.10283L2.66526 2.9669V1.60152ZM3.50605 3.64986L1.50625 6.84998H8.47391L10.2674 3.64986H3.50605ZM8.256 7.91747L1.07789 7.91735V20.3984C1.07789 20.6918 1.31966 20.9325 1.61731 20.9325H8.256V7.91747ZM9.33473 20.6541L12.5952 19.2581L12.596 19.2578C12.7963 19.1708 12.9221 18.9785 12.9221 18.7702V6.29702C12.9221 6.26371 12.9105 6.22464 12.8828 6.18818V6.18818L11.2611 4.0847L9.33473 7.52195V20.6541ZM10.5809 2.57877H3.74316V1.60152C3.74316 1.30678 3.98626 1.06737 4.28257 1.06737H10.0453C10.3276 1.06737 10.5595 1.2838 10.5828 1.55637C10.5816 1.57125 10.5809 1.58631 10.5809 1.60152V2.57877ZM2.69474 15.0158C2.99239 15.0158 3.23368 15.2547 3.23368 15.5494V19.3314C3.23368 19.6262 2.99239 19.8651 2.69474 19.8651C2.39708 19.8651 2.15579 19.6262 2.15579 19.3314L2.15579 15.5494C2.15579 15.2547 2.39708 15.0158 2.69474 15.0158Z" fill="#464542"/>
</svg>
