<svg width="24" height="24" viewBox="0 0 24 24" fill="none" xmlns="http://www.w3.org/2000/svg">
<path d="M7.2 21C5.19051 21.0275 4.2785 20.3217 4.01595 17.9541C4.011 17.9095 4.00853 17.8872 4.00597 17.8542C4.004 17.8286 4.00195 17.7916 4.0011 17.766C4 17.7328 4 17.7058 4 17.6518C4 16.4644 4 8.48546 4 6.2C4.09982 3.92912 5.02328 3.16671 7.2 3H16.8C19.1144 3.20614 19.8047 4.13579 20 6.2V7M8 7H14M8 15H9M8 11H12M11.1954 20.8945L12.5102 20.6347C13.2197 20.4945 13.5744 20.4244 13.9052 20.2952C14.1988 20.1806 14.4778 20.0317 14.7365 19.8516C15.0279 19.6486 15.2836 19.393 15.7949 18.8816L20.9434 13.7332C21.6306 13.0459 21.6306 11.9316 20.9434 11.2444C20.2561 10.5571 19.1418 10.5571 18.4546 11.2444L13.2182 16.4808C12.739 16.96 12.4994 17.1996 12.3059 17.4712C12.1341 17.7123 11.9896 17.9717 11.8751 18.2447C11.7461 18.5522 11.6686 18.882 11.5135 19.5417L11.1954 20.8945Z" stroke="#464542" stroke-width="1.5" stroke-linecap="round" stroke-linejoin="round"/>
</svg>
