<svg width="24" height="24" viewBox="0 0 24 24" fill="none" xmlns="http://www.w3.org/2000/svg">
<path fillRule="evenodd" clipRule="evenodd" d="M7.14273 2.25219C7.16178 2.25073 7.18089 2.25 7.2 2.25H16.8C16.8222 2.25 16.8444 2.25099 16.8665 2.25296C18.098 2.36264 19.0696 2.67669 19.7406 3.38895C20.403 4.09209 20.6447 5.05124 20.7467 6.12936C20.7489 6.15284 20.75 6.17642 20.75 6.2V7C20.75 7.41421 20.4142 7.75 20 7.75C19.5858 7.75 19.25 7.41421 19.25 7V6.23605C19.1553 5.27194 18.9553 4.7429 18.6488 4.4175C18.3502 4.10056 17.8271 3.84861 16.766 3.75H7.22923C6.2098 3.83114 5.66124 4.04383 5.34083 4.35172C5.03079 4.64965 4.79812 5.17056 4.75 6.21685V17.6518C4.75 17.7087 4.75008 17.7227 4.75069 17.7411C4.75117 17.7557 4.75261 17.7817 4.75373 17.7963C4.7552 17.8152 4.75631 17.8257 4.76138 17.8714C4.88619 18.997 5.1505 19.5392 5.45945 19.8222C5.75945 20.0969 6.25079 20.2629 7.18973 20.2501C7.60391 20.2444 7.94426 20.5756 7.94993 20.9897C7.9556 21.4039 7.62444 21.7443 7.21027 21.7499C6.13972 21.7646 5.17031 21.5914 4.4463 20.9283C3.73123 20.2733 3.40825 19.2788 3.27052 18.0367L3.27002 18.0323C3.26543 17.9909 3.26174 17.9576 3.25821 17.9121C3.25538 17.8756 3.25272 17.8275 3.25151 17.7908C3.24999 17.7451 3.25 17.7066 3.25 17.6586L3.25 6.2C3.25 6.18902 3.25024 6.17804 3.25072 6.16706C3.30408 4.95323 3.58226 3.9613 4.3015 3.27015C5.00903 2.59026 6.00344 2.33945 7.14273 2.25219ZM7.25 7C7.25 6.58579 7.58579 6.25 8 6.25H14C14.4142 6.25 14.75 6.58579 14.75 7C14.75 7.41421 14.4142 7.75 14 7.75H8C7.58579 7.75 7.25 7.41421 7.25 7ZM17.9243 10.7141C18.9044 9.73391 20.4935 9.73391 21.4737 10.7141C22.4538 11.6942 22.4538 13.2833 21.4737 14.2635L16.3253 19.4119C16.3089 19.4283 16.2928 19.4444 16.2768 19.4604C15.8117 19.9256 15.5118 20.2256 15.1651 20.467C14.8579 20.6809 14.5266 20.8578 14.1779 20.9939C13.7843 21.1475 13.3682 21.2297 12.7228 21.3572L11.3408 21.6303C11.0908 21.6797 10.8327 21.5987 10.6557 21.4153C10.4787 21.2318 10.407 20.971 10.4653 20.7229L10.798 19.3077C10.9391 18.7075 11.03 18.3204 11.1835 17.9545C11.3195 17.6303 11.4911 17.3223 11.6951 17.036C11.9253 16.7128 12.2065 16.4317 12.6425 15.9958L17.9243 10.7141ZM20.413 11.7747C20.0187 11.3804 19.3793 11.3804 18.9849 11.7747L13.7485 17.0112C13.2522 17.5074 13.0656 17.6974 12.9167 17.9064C12.7772 18.1022 12.6598 18.313 12.5667 18.5348C12.4674 18.7714 12.4042 19.0301 12.2436 19.7133L12.1919 19.9331L12.3648 19.8989C13.0997 19.7537 13.3779 19.6959 13.6324 19.5966C13.871 19.5035 14.0977 19.3825 14.3079 19.2361C14.5321 19.08 14.7349 18.881 15.2646 18.3513L20.413 13.2028C20.8074 12.8085 20.8074 12.1691 20.413 11.7747ZM7.25 11C7.25 10.5858 7.58579 10.25 8 10.25H12C12.4142 10.25 12.75 10.5858 12.75 11C12.75 11.4142 12.4142 11.75 12 11.75H8C7.58579 11.75 7.25 11.4142 7.25 11ZM7.25 15C7.25 14.5858 7.58579 14.25 8 14.25H9C9.41421 14.25 9.75 14.5858 9.75 15C9.75 15.4142 9.41421 15.75 9 15.75H8C7.58579 15.75 7.25 15.4142 7.25 15Z" fill="#464542"/>
</svg>
