<svg width="24" height="24" viewBox="0 0 24 24" fill="none" xmlns="http://www.w3.org/2000/svg">
<path fill-rule="evenodd" clip-rule="evenodd" d="M9.56769 5.45946C10.7767 5.45946 11.7569 6.43959 11.7569 7.64865C11.7569 8.8577 10.7767 9.83784 9.56769 9.83784C8.35863 9.83784 7.3785 8.8577 7.3785 7.64865C7.3785 6.43959 8.35863 5.45946 9.56769 5.45946ZM13.2163 7.64865C13.2163 5.63356 11.5828 4 9.56769 4C7.55259 4 5.91904 5.63356 5.91904 7.64865C5.91904 9.66374 7.55259 11.2973 9.56769 11.2973C11.5828 11.2973 13.2163 9.66374 13.2163 7.64865ZM16.1353 16.4054C16.1353 14.3903 14.5017 12.7568 12.4866 12.7568H6.64877C4.63367 12.7568 3.00012 14.3903 3.00012 16.4054C3.00012 18.4205 4.63367 20.0541 6.64877 20.0541H12.4866C14.5017 20.0541 16.1353 18.4205 16.1353 16.4054ZM12.4866 14.2162C13.6957 14.2162 14.6758 15.1963 14.6758 16.4054C14.6758 17.6145 13.6957 18.5946 12.4866 18.5946H6.64877C5.43971 18.5946 4.45958 17.6145 4.45958 16.4054C4.45958 15.1963 5.43971 14.2162 6.64877 14.2162H12.4866Z" fill="#464542"/>
<path d="M13.7006 10.216C13.8541 9.96945 14.142 9.83784 14.4324 9.83784C15.6415 9.83784 16.6216 8.8577 16.6216 7.64865C16.6216 6.43959 15.6415 5.45946 14.4324 5.45946C14.142 5.45946 13.8541 5.32784 13.7006 5.08131C13.6938 5.07041 13.687 5.05953 13.6801 5.04869C13.4246 4.64538 13.5541 4.07434 14.0286 4.02209C14.1612 4.00749 14.296 4 14.4324 4C16.4475 4 18.0811 5.63356 18.0811 7.64865C18.0811 9.66374 16.4475 11.2973 14.4324 11.2973C14.296 11.2973 14.1612 11.2898 14.0286 11.2752C13.5541 11.223 13.4246 10.6519 13.6801 10.2486C13.687 10.2378 13.6938 10.2269 13.7006 10.216Z" fill="#464542"/>
<path d="M16.6622 17.9299C16.7727 17.7457 16.9676 17.6216 17.1825 17.6216H17.3514C18.5604 17.6216 19.5405 16.6415 19.5405 15.4324C19.5405 14.2234 18.5604 13.2432 17.3514 13.2432H17.1825C16.9676 13.2432 16.7727 13.1192 16.6622 12.9349C16.3926 12.4851 16.6852 11.7838 17.2096 11.7838H17.3514C19.3664 11.7838 21 13.4173 21 15.4324C21 17.4475 19.3664 19.0811 17.3514 19.0811H17.2096C16.6852 19.0811 16.3926 18.3797 16.6622 17.9299Z" fill="#464542"/>
</svg>
