<svg width="24" height="24" viewBox="0 0 24 24" fill="none" xmlns="http://www.w3.org/2000/svg">
<path fillRule="evenodd" clipRule="evenodd" d="M12.8494 3.89665C12.2932 3.74604 11.7069 3.74604 11.1507 3.89665C10.5558 4.05771 9.99132 4.47872 8.53127 5.61432L5.93126 7.63654C4.991 8.36786 4.63808 8.65061 4.38707 8.98998C4.152 9.30781 3.97688 9.66586 3.87032 10.0465C3.75654 10.453 3.75003 10.9052 3.75003 12.0964V14.5662C3.75003 15.6987 3.75061 16.503 3.80203 17.1324C3.85274 17.753 3.94912 18.1372 4.10426 18.4417C4.41585 19.0532 4.91303 19.5504 5.52456 19.862C5.82903 20.0172 6.21328 20.1135 6.83391 20.1642C7.46329 20.2157 8.26755 20.2162 9.40003 20.2162H14.6C15.7325 20.2162 16.5368 20.2157 17.1661 20.1642C17.7868 20.1135 18.171 20.0172 18.4755 19.862C19.087 19.5504 19.5842 19.0532 19.8958 18.4417C20.0509 18.1372 20.1473 17.753 20.198 17.1324C20.2494 16.503 20.25 15.6987 20.25 14.5662V12.0964C20.25 10.9052 20.2435 10.453 20.1297 10.0465C20.0232 9.66586 19.8481 9.30781 19.613 8.98998C19.362 8.65061 19.0091 8.36786 18.0688 7.63654L15.4688 5.61432C14.0087 4.47873 13.4443 4.05771 12.8494 3.89665ZM10.7586 2.44878C11.5716 2.22866 12.4285 2.22866 13.2414 2.44878C14.1648 2.69879 14.9802 3.33333 16.2497 4.32139C16.2958 4.35723 16.3424 4.39353 16.3897 4.43029L18.9897 6.45251C19.0192 6.47544 19.0483 6.49807 19.077 6.52043C19.9001 7.16034 20.4303 7.57253 20.819 8.098C21.1625 8.56252 21.4185 9.08583 21.5742 9.64222C21.7504 10.2716 21.7503 10.9432 21.75 11.9857C21.75 12.0222 21.75 12.059 21.75 12.0964V14.5993C21.75 15.6914 21.75 16.5569 21.693 17.2545C21.6348 17.9679 21.5131 18.5715 21.2323 19.1227C20.7769 20.0165 20.0503 20.7431 19.1565 21.1985C18.6053 21.4794 18.0017 21.601 17.2883 21.6593C16.5907 21.7163 15.7252 21.7163 14.633 21.7162H9.36701C8.27487 21.7163 7.40938 21.7163 6.71176 21.6593C5.99837 21.601 5.39475 21.4794 4.84357 21.1985C3.9498 20.7431 3.22315 20.0165 2.76775 19.1227C2.48691 18.5715 2.3653 17.9679 2.30702 17.2545C2.25002 16.5569 2.25002 15.6914 2.25003 14.5992L2.25003 12.0964C2.25003 12.059 2.25002 12.0222 2.25001 11.9857C2.2498 10.9432 2.24967 10.2716 2.42584 9.64222C2.58158 9.08583 2.83752 8.56253 3.18109 8.098C3.56975 7.57253 4.09993 7.16034 4.92301 6.52043C4.95176 6.49807 4.98088 6.47544 5.01035 6.45251L7.61036 4.43029C7.65763 4.39352 7.70428 4.35722 7.75033 4.32138C9.01991 3.33332 9.83524 2.69879 10.7586 2.44878ZM8.58525 14.4972C8.32631 14.1747 7.8546 14.1221 7.53151 14.3806C7.20806 14.6393 7.15562 15.1113 7.41438 15.4348L7.41512 15.4357L7.41602 15.4368L7.41826 15.4396L7.42456 15.4473L7.4443 15.4711C7.46063 15.4905 7.48326 15.517 7.51203 15.5495C7.5695 15.6143 7.65173 15.7036 7.7572 15.8091C7.96746 16.0193 8.2738 16.2978 8.6641 16.5765C9.43824 17.1295 10.5892 17.7162 12 17.7162C13.4109 17.7162 14.5618 17.1295 15.336 16.5765C15.7263 16.2978 16.0326 16.0193 16.2429 15.8091C16.3483 15.7036 16.4306 15.6143 16.488 15.5495C16.5168 15.517 16.5394 15.4905 16.5558 15.4711L16.5755 15.4473L16.5818 15.4396L16.584 15.4368L16.5849 15.4357L16.5857 15.4348C16.8444 15.1113 16.792 14.6393 16.4685 14.3806C16.1452 14.1219 15.6735 14.1742 15.4147 14.4973L15.4154 14.4964M15.4154 14.4964L15.4147 14.4973L15.4072 14.5063C15.3989 14.5162 15.3848 14.5327 15.3651 14.5549C15.3257 14.5994 15.2642 14.6664 15.1822 14.7484C15.0175 14.9131 14.7738 15.1347 14.4641 15.3559C13.8382 15.803 12.9892 16.2162 12 16.2162C11.0109 16.2162 10.1618 15.803 9.53596 15.3559C9.22626 15.1347 8.98259 14.9131 8.81786 14.7484C8.73583 14.6664 8.67431 14.5994 8.63491 14.5549C8.61523 14.5327 8.60115 14.5162 8.59286 14.5063L8.58525 14.4972" fill="#464542"/>
</svg>
