<svg width="24" height="24" viewBox="0 0 24 24" fill="none" xmlns="http://www.w3.org/2000/svg">
<path fill-rule="evenodd" clip-rule="evenodd" d="M6.83117 3H6.88312C7.34028 2.99999 7.72192 2.99999 8.03523 3.02136C8.36139 3.04362 8.66948 3.09159 8.96816 3.21531C9.66124 3.5024 10.2119 4.05304 10.499 4.74612C10.6227 5.04481 10.6707 5.35289 10.6929 5.67905C10.7143 5.99237 10.7143 6.37401 10.7143 6.83116V6.88312C10.7143 7.34028 10.7143 7.72192 10.6929 8.03523C10.6707 8.36139 10.6227 8.66948 10.499 8.96816C10.2119 9.66124 9.66124 10.2119 8.96816 10.499C8.66948 10.6227 8.36139 10.6707 8.03523 10.6929C7.72192 10.7143 7.34028 10.7143 6.88312 10.7143H6.83116C6.37401 10.7143 5.99237 10.7143 5.67905 10.6929C5.35289 10.6707 5.04481 10.6227 4.74612 10.499C4.05304 10.2119 3.5024 9.66124 3.21531 8.96816C3.09159 8.66948 3.04362 8.36139 3.02136 8.03523C2.99999 7.72192 2.99999 7.34028 3 6.88312V6.83117C2.99999 6.37401 2.99999 5.99237 3.02136 5.67905C3.04362 5.35289 3.09159 5.04481 3.21531 4.74612C3.5024 4.05304 4.05304 3.5024 4.74612 3.21531C5.04481 3.09159 5.35289 3.04362 5.67905 3.02136C5.99237 2.99999 6.37401 2.99999 6.83117 3ZM5.78408 4.56064C5.53647 4.57754 5.41591 4.60786 5.33655 4.64073C5.02151 4.77122 4.77122 5.02151 4.64073 5.33655C4.60786 5.41591 4.57754 5.53647 4.56064 5.78408C4.54328 6.03861 4.54286 6.36733 4.54286 6.85714C4.54286 7.34695 4.54328 7.67567 4.56064 7.93021C4.57754 8.17781 4.60786 8.29838 4.64073 8.37774C4.77122 8.69277 5.02151 8.94307 5.33655 9.07356C5.41591 9.10643 5.53647 9.13675 5.78408 9.15364C6.03861 9.17101 6.36733 9.17143 6.85714 9.17143C7.34695 9.17143 7.67567 9.17101 7.93021 9.15364C8.17781 9.13675 8.29838 9.10643 8.37774 9.07356C8.69277 8.94307 8.94307 8.69277 9.07356 8.37774C9.10643 8.29838 9.13675 8.17781 9.15364 7.93021C9.17101 7.67567 9.17143 7.34695 9.17143 6.85714C9.17143 6.36733 9.17101 6.03861 9.15364 5.78408C9.13675 5.53647 9.10643 5.41591 9.07356 5.33655C8.94307 5.02151 8.69277 4.77122 8.37774 4.64073C8.29838 4.60786 8.17781 4.57754 7.93021 4.56064C7.67567 4.54328 7.34695 4.54286 6.85714 4.54286C6.36733 4.54286 6.03861 4.54328 5.78408 4.56064ZM17.1169 3H17.1688C17.626 2.99999 18.0076 2.99999 18.3209 3.02136C18.6471 3.04362 18.9552 3.09159 19.2539 3.21531C19.947 3.5024 20.4976 4.05304 20.7847 4.74612C20.9084 5.04481 20.9564 5.35289 20.9786 5.67905C21 5.99237 21 6.37401 21 6.83116V6.88312C21 7.34028 21 7.72192 20.9786 8.03523C20.9564 8.36139 20.9084 8.66948 20.7847 8.96816C20.4976 9.66124 19.947 10.2119 19.2539 10.499C18.9552 10.6227 18.6471 10.6707 18.3209 10.6929C18.0076 10.7143 17.626 10.7143 17.1688 10.7143H17.1169C16.6597 10.7143 16.2781 10.7143 15.9648 10.6929C15.6386 10.6707 15.3305 10.6227 15.0318 10.499C14.3388 10.2119 13.7881 9.66124 13.501 8.96816C13.3773 8.66948 13.3293 8.36139 13.3071 8.03523C13.2857 7.72192 13.2857 7.34028 13.2857 6.88312V6.83116C13.2857 6.37401 13.2857 5.99237 13.3071 5.67905C13.3293 5.35289 13.3773 5.04481 13.501 4.74612C13.7881 4.05304 14.3388 3.5024 15.0318 3.21531C15.3305 3.09159 15.6386 3.04362 15.9648 3.02136C16.2781 2.99999 16.6597 2.99999 17.1169 3ZM16.0698 4.56064C15.8222 4.57754 15.7016 4.60786 15.6223 4.64073C15.3072 4.77122 15.0569 5.02151 14.9264 5.33655C14.8936 5.41591 14.8633 5.53647 14.8464 5.78408C14.829 6.03861 14.8286 6.36733 14.8286 6.85714C14.8286 7.34695 14.829 7.67567 14.8464 7.93021C14.8633 8.17781 14.8936 8.29838 14.9264 8.37774C15.0569 8.69277 15.3072 8.94307 15.6223 9.07356C15.7016 9.10643 15.8222 9.13675 16.0698 9.15364C16.3243 9.17101 16.653 9.17143 17.1429 9.17143C17.6327 9.17143 17.9614 9.17101 18.2159 9.15364C18.4635 9.13675 18.5841 9.10643 18.6634 9.07356C18.9785 8.94307 19.2288 8.69277 19.3593 8.37774C19.3921 8.29838 19.4225 8.17781 19.4394 7.93021C19.4567 7.67567 19.4571 7.34695 19.4571 6.85714C19.4571 6.36733 19.4567 6.03861 19.4394 5.78408C19.4225 5.53647 19.3921 5.41591 19.3593 5.33655C19.2288 5.02151 18.9785 4.77122 18.6634 4.64073C18.5841 4.60786 18.4635 4.57754 18.2159 4.56064C17.9614 4.54328 17.6327 4.54286 17.1429 4.54286C16.653 4.54286 16.3243 4.54328 16.0698 4.56064ZM6.83116 13.2857H6.88312C7.34028 13.2857 7.72192 13.2857 8.03523 13.3071C8.36139 13.3293 8.66948 13.3773 8.96816 13.501C9.66124 13.7881 10.2119 14.3388 10.499 15.0318C10.6227 15.3305 10.6707 15.6386 10.6929 15.9648C10.7143 16.2781 10.7143 16.6597 10.7143 17.1169V17.1688C10.7143 17.626 10.7143 18.0076 10.6929 18.3209C10.6707 18.6471 10.6227 18.9552 10.499 19.2539C10.2119 19.947 9.66124 20.4976 8.96816 20.7847C8.66948 20.9084 8.36139 20.9564 8.03523 20.9786C7.72192 21 7.34028 21 6.88312 21H6.83116C6.37401 21 5.99237 21 5.67905 20.9786C5.35289 20.9564 5.04481 20.9084 4.74612 20.7847C4.05304 20.4976 3.5024 19.947 3.21531 19.2539C3.09159 18.9552 3.04362 18.6471 3.02136 18.3209C2.99999 18.0076 2.99999 17.626 3 17.1688V17.1169C2.99999 16.6597 2.99999 16.2781 3.02136 15.9648C3.04362 15.6386 3.09159 15.3305 3.21531 15.0318C3.5024 14.3388 4.05304 13.7881 4.74612 13.501C5.04481 13.3773 5.35289 13.3293 5.67905 13.3071C5.99237 13.2857 6.37401 13.2857 6.83116 13.2857ZM5.78408 14.8464C5.53647 14.8633 5.41591 14.8936 5.33655 14.9264C5.02151 15.0569 4.77122 15.3072 4.64073 15.6223C4.60786 15.7016 4.57754 15.8222 4.56064 16.0698C4.54328 16.3243 4.54286 16.653 4.54286 17.1429C4.54286 17.6327 4.54328 17.9614 4.56064 18.2159C4.57754 18.4635 4.60786 18.5841 4.64073 18.6634C4.77122 18.9785 5.02151 19.2288 5.33655 19.3593C5.41591 19.3921 5.53647 19.4225 5.78408 19.4394C6.03861 19.4567 6.36733 19.4571 6.85714 19.4571C7.34695 19.4571 7.67567 19.4567 7.93021 19.4394C8.17781 19.4225 8.29838 19.3921 8.37774 19.3593C8.69277 19.2288 8.94307 18.9785 9.07356 18.6634C9.10643 18.5841 9.13675 18.4635 9.15364 18.2159C9.17101 17.9614 9.17143 17.6327 9.17143 17.1429C9.17143 16.653 9.17101 16.3243 9.15364 16.0698C9.13675 15.8222 9.10643 15.7016 9.07356 15.6223C8.94307 15.3072 8.69277 15.0569 8.37774 14.9264C8.29838 14.8936 8.17781 14.8633 7.93021 14.8464C7.67567 14.829 7.34695 14.8286 6.85714 14.8286C6.36733 14.8286 6.03861 14.829 5.78408 14.8464ZM17.1169 13.2857H17.1688C17.626 13.2857 18.0076 13.2857 18.3209 13.3071C18.6471 13.3293 18.9552 13.3773 19.2539 13.501C19.947 13.7881 20.4976 14.3388 20.7847 15.0318C20.9084 15.3305 20.9564 15.6386 20.9786 15.9648C21 16.2781 21 16.6597 21 17.1169V17.1688C21 17.626 21 18.0076 20.9786 18.3209C20.9564 18.6471 20.9084 18.9552 20.7847 19.2539C20.4976 19.947 19.947 20.4976 19.2539 20.7847C18.9552 20.9084 18.6471 20.9564 18.3209 20.9786C18.0076 21 17.626 21 17.1688 21H17.1169C16.6597 21 16.2781 21 15.9648 20.9786C15.6386 20.9564 15.3305 20.9084 15.0318 20.7847C14.3388 20.4976 13.7881 19.947 13.501 19.2539C13.3773 18.9552 13.3293 18.6471 13.3071 18.3209C13.2857 18.0076 13.2857 17.626 13.2857 17.1688V17.1169C13.2857 16.6597 13.2857 16.2781 13.3071 15.9648C13.3293 15.6386 13.3773 15.3305 13.501 15.0318C13.7881 14.3388 14.3388 13.7881 15.0318 13.501C15.3305 13.3773 15.6386 13.3293 15.9648 13.3071C16.2781 13.2857 16.6597 13.2857 17.1169 13.2857ZM16.0698 14.8464C15.8222 14.8633 15.7016 14.8936 15.6223 14.9264C15.3072 15.0569 15.0569 15.3072 14.9264 15.6223C14.8936 15.7016 14.8633 15.8222 14.8464 16.0698C14.829 16.3243 14.8286 16.653 14.8286 17.1429C14.8286 17.6327 14.829 17.9614 14.8464 18.2159C14.8633 18.4635 14.8936 18.5841 14.9264 18.6634C15.0569 18.9785 15.3072 19.2288 15.6223 19.3593C15.7016 19.3921 15.8222 19.4225 16.0698 19.4394C16.3243 19.4567 16.653 19.4571 17.1429 19.4571C17.6327 19.4571 17.9614 19.4567 18.2159 19.4394C18.4635 19.4225 18.5841 19.3921 18.6634 19.3593C18.9785 19.2288 19.2288 18.9785 19.3593 18.6634C19.3921 18.5841 19.4225 18.4635 19.4394 18.2159C19.4567 17.9614 19.4571 17.6327 19.4571 17.1429C19.4571 16.653 19.4567 16.3243 19.4394 16.0698C19.4225 15.8222 19.3921 15.7016 19.3593 15.6223C19.2288 15.3072 18.9785 15.0569 18.6634 14.9264C18.5841 14.8936 18.4635 14.8633 18.2159 14.8464C17.9614 14.829 17.6327 14.8286 17.1429 14.8286C16.653 14.8286 16.3243 14.829 16.0698 14.8464Z" fill="#464542"/>
</svg>
