<svg width="24" height="24" viewBox="0 0 24 24" fill="none" xmlns="http://www.w3.org/2000/svg">
<g clip-path="url(#clip0_2033_2654)">
<path fill-rule="evenodd" clip-rule="evenodd" d="M5.17148 3.65968C5.88648 2.65987 7.01306 2 8.55944 2C8.83914 2 9.09495 2.1589 9.22058 2.41069C9.34621 2.66248 9.32019 2.96412 9.15334 3.19031C8.95189 3.4634 8.84688 3.75472 8.84688 4.10812C8.84688 4.72021 9.16585 5.24456 9.93714 5.68242C10.5078 5.3597 11.1582 5.18107 11.8379 5.18107H20.1572C20.8367 5.18107 21.4884 5.36097 22.0596 5.68421C22.8332 5.246 23.153 4.72105 23.153 4.10812C23.153 3.75215 23.0465 3.45768 22.8494 3.1942C22.6806 2.96842 22.653 2.66585 22.7782 2.41287C22.9034 2.15988 23.1599 2 23.4404 2C24.9325 2 26.0514 2.66533 26.7752 3.64969C27.4806 4.60888 27.7902 5.83669 27.7902 6.99228C27.7902 7.9268 27.5471 8.73335 27.1188 9.42252C28.2422 9.42366 29.3686 9.45468 30.2268 9.69659C30.6721 9.82215 31.1176 10.023 31.4564 10.3694C31.8162 10.7372 32 11.2124 32 11.7586C32 12.6514 31.6838 13.7618 30.892 14.6585C30.0811 15.5768 28.8203 16.2154 27.0504 16.2154C26.5751 16.2154 26.1149 16.1702 25.6788 16.0857C25.5984 17.7215 24.818 18.982 24.12 20.1093C24.0782 20.1769 24.0367 20.2439 23.9956 20.3106C23.2125 21.5815 22.5296 22.7808 22.5283 24.4779C22.5283 24.4796 22.5283 24.4812 22.5283 24.4828L22.5283 25.013C22.5283 26.6523 21.7364 27.932 20.5107 28.7737C19.3081 29.5995 17.7034 30 16 30C14.2967 30 12.6919 29.5995 11.4894 28.7737C10.2636 27.932 9.47175 26.6523 9.47175 25.013V24.6128C9.47175 22.9095 8.78547 21.6741 8.00002 20.3663C7.95856 20.2973 7.91664 20.2278 7.87442 20.1579C7.17764 19.0034 6.40143 17.7172 6.32128 16.0857C5.88515 16.1702 5.42496 16.2154 4.94965 16.2154C3.1797 16.2154 1.91889 15.5768 1.10799 14.6585C0.31619 13.7618 0 12.6514 0 11.7586C0 11.2124 0.183812 10.7372 0.543628 10.3694C0.882427 10.023 1.32786 9.82215 1.77324 9.69659C2.63139 9.45468 3.75782 9.42366 4.88118 9.42252C4.45287 8.73337 4.20967 7.92682 4.20967 6.99228C4.20967 5.85658 4.47974 4.62697 5.17148 3.65968ZM7.06396 11.383C6.96005 11.3334 6.81411 11.2697 6.63253 11.2053C6.22053 11.0592 5.63645 10.9136 4.94965 10.9136C3.76975 10.9136 2.81979 10.95 2.17201 11.1326C1.8557 11.2217 1.68481 11.327 1.59771 11.4161C1.53163 11.4836 1.47996 11.5731 1.47996 11.7586C1.47996 12.3291 1.68998 13.0743 2.2137 13.6674C2.71832 14.2388 3.56235 14.7243 4.94965 14.7243C5.64067 14.7243 6.27552 14.6056 6.81165 14.4088C7.03256 14.3277 7.27858 14.3572 7.47443 14.4883C7.67028 14.6193 7.79265 14.8364 7.80411 15.073L7.81463 15.2903C7.81562 15.3107 7.81577 15.3311 7.8151 15.3515C7.81141 15.463 7.80674 15.5337 7.80278 15.5937C7.79813 15.6641 7.79446 15.7198 7.79446 15.8091C7.79446 17.1458 8.41627 18.1803 9.20003 19.4842C9.22196 19.5207 9.24402 19.5574 9.26619 19.5943C9.66707 20.2618 10.0933 20.987 10.4168 21.8188C10.9204 21.3634 11.5863 21.0864 12.3166 21.0864H19.6835C20.3986 21.0864 21.0519 21.352 21.5516 21.7907C21.8798 20.9342 22.3227 20.1985 22.7382 19.5241C22.7602 19.4885 22.7821 19.453 22.8038 19.4178C23.5871 18.1475 24.2056 17.1445 24.2056 15.8091C24.2056 15.7198 24.2019 15.6641 24.1973 15.5937C24.1933 15.5337 24.1886 15.463 24.1849 15.3515C24.1843 15.3312 24.1844 15.3108 24.1854 15.2905L24.1959 15.0731C24.2073 14.8365 24.3297 14.6194 24.5255 14.4883C24.7214 14.3572 24.9674 14.3277 25.1884 14.4088C25.7245 14.6056 26.3593 14.7243 27.0504 14.7243C28.4377 14.7243 29.2817 14.2388 29.7863 13.6674C30.31 13.0743 30.52 12.3291 30.52 11.7586C30.52 11.5731 30.4684 11.4836 30.4023 11.4161C30.3152 11.327 30.1443 11.2217 29.828 11.1326C29.1802 10.95 28.2302 10.9136 27.0504 10.9136C26.3636 10.9136 25.7795 11.0592 25.3676 11.2053C25.1862 11.2697 25.0404 11.3333 24.9365 11.3829C24.8621 11.4236 24.7865 11.4633 24.71 11.5021C24.5137 11.6016 24.2837 11.6081 24.0822 11.5197C23.8807 11.4314 23.7286 11.2574 23.667 11.0448C23.318 9.83919 22.8166 8.74158 22.1969 7.79517C22.0379 7.55207 21.8413 7.34183 21.6183 7.17151C21.5912 7.1542 21.565 7.13506 21.5402 7.11417C21.1377 6.83096 20.6571 6.67219 20.1572 6.67219H11.8379C11.3483 6.67219 10.879 6.82259 10.4821 7.09462C10.4431 7.13009 10.4007 7.16105 10.3558 7.18717C10.1425 7.35413 9.95374 7.55829 9.79859 7.79459C9.19249 8.72535 8.69983 9.79506 8.35213 10.9631C8.33841 11.0431 8.31139 11.1221 8.27025 11.1971C8.13705 11.4396 7.88871 11.5787 7.63071 11.5817C7.55776 11.583 7.4834 11.5733 7.4097 11.5516C7.34471 11.5324 7.28431 11.505 7.2293 11.4709C7.17363 11.4421 7.11851 11.4128 7.06396 11.383ZM7.20231 9.72245C7.5611 8.73293 8.01875 7.80942 8.56187 6.97556L8.56317 6.97357C8.62661 6.87684 8.69379 6.78334 8.76446 6.69324C7.93146 6.08946 7.36692 5.24535 7.36692 4.10812C7.36692 3.97023 7.37559 3.83614 7.39244 3.70579C6.95258 3.89042 6.62216 4.18187 6.37222 4.53137C5.91419 5.17184 5.68963 6.0656 5.68963 6.99228C5.68963 8.12493 6.20038 9.01902 7.20231 9.72245ZM23.2325 6.69533C23.3027 6.78498 23.3694 6.87795 23.4323 6.97407C23.977 7.806 24.4355 8.73087 24.7946 9.72472C25.7986 9.02098 26.3103 8.1262 26.3103 6.99228C26.3103 6.08018 26.0621 5.18463 25.5861 4.53739C25.3347 4.19554 25.0143 3.91345 24.6104 3.72868C24.6253 3.85208 24.633 3.97859 24.633 4.10812C24.633 5.24666 24.0671 6.09141 23.2325 6.69533ZM21.0483 24.4774V23.9527C21.0483 23.1927 20.4377 22.5775 19.6835 22.5775H12.3166C11.5623 22.5775 10.9517 23.1927 10.9517 23.9527V25.013C10.9517 26.1042 11.4543 26.9451 12.3229 27.5415C13.2146 28.1539 14.504 28.5089 16 28.5089C17.496 28.5089 18.7854 28.1539 19.6772 27.5415C20.5457 26.9451 21.0483 26.1042 21.0483 25.013V24.4845C21.0483 24.484 21.0483 24.4834 21.0483 24.4828C21.0483 24.481 21.0483 24.4792 21.0483 24.4774Z" fill="#464542"/>
</g>
<defs>
<clipPath id="clip0_2033_2654">
<rect width="24" height="24" fill="white"/>
</clipPath>
</defs>
</svg>
