<svg width="24" height="25" viewBox="0 0 24 25" fill="none" xmlns="http://www.w3.org/2000/svg">
<path fill-rule="evenodd" clip-rule="evenodd" d="M5.23217 4.7873C5.67905 4.16242 6.38317 3.75 7.34965 3.75C7.52446 3.75 7.68434 3.84931 7.76286 4.00668C7.84138 4.16405 7.82512 4.35258 7.72084 4.49394C7.59493 4.66463 7.5293 4.8467 7.5293 5.06757C7.5293 5.45013 7.72866 5.77785 8.21071 6.05151C8.56735 5.84981 8.97386 5.73817 9.39868 5.73817H14.5983C15.0229 5.73817 15.4302 5.85061 15.7872 6.05263C16.2707 5.77875 16.4706 5.45066 16.4706 5.06757C16.4706 4.8451 16.404 4.66105 16.2809 4.49638C16.1754 4.35526 16.1581 4.16616 16.2364 4.00804C16.3146 3.84993 16.4749 3.75 16.6503 3.75C17.5828 3.75 18.2821 4.16583 18.7345 4.78106C19.1754 5.38055 19.3689 6.14793 19.3689 6.87018C19.3689 7.45425 19.2169 7.95835 18.9493 8.38908C19.6514 8.38979 20.3554 8.40917 20.8917 8.56037C21.1701 8.63884 21.4485 8.7644 21.6602 8.98087C21.8851 9.21078 22 9.50774 22 9.84911C22 10.4071 21.8024 11.1011 21.3075 11.6616C20.8007 12.2355 20.0127 12.6346 18.9065 12.6346C18.6094 12.6346 18.3218 12.6064 18.0492 12.5536C17.999 13.576 17.5113 14.3637 17.075 15.0683C17.0489 15.1105 17.0229 15.1525 16.9973 15.1941C16.5078 15.9884 16.081 16.738 16.0802 17.7987C16.0802 17.7997 16.0802 17.8008 16.0802 17.8018L16.0802 18.1331C16.0802 19.1577 15.5853 19.9575 14.8192 20.4836C14.0676 20.9997 13.0646 21.25 12 21.25C10.9354 21.25 9.93247 20.9997 9.18086 20.4836C8.41476 19.9575 7.91984 19.1577 7.91984 18.1331V17.883C7.91984 16.8184 7.49092 16.0463 7.00001 15.2289C6.9741 15.1858 6.9479 15.1424 6.92152 15.0987C6.48603 14.3771 6.0009 13.5733 5.9508 12.5536C5.67822 12.6064 5.3906 12.6346 5.09353 12.6346C3.98731 12.6346 3.19931 12.2355 2.6925 11.6616C2.19762 11.1011 2 10.4071 2 9.84911C2 9.50774 2.11488 9.21078 2.33977 8.98087C2.55152 8.7644 2.82992 8.63884 3.10827 8.56037C3.64462 8.40917 4.34863 8.38979 5.05074 8.38908C4.78304 7.95835 4.63104 7.45426 4.63104 6.87018C4.63104 6.16036 4.79983 5.39186 5.23217 4.7873ZM6.41498 9.61439C6.35003 9.58339 6.25882 9.54358 6.14533 9.50333C5.88783 9.41202 5.52278 9.32101 5.09353 9.32101C4.3561 9.32101 3.76237 9.34372 3.3575 9.45786C3.15981 9.51359 3.05301 9.57939 2.99857 9.63505C2.95727 9.67727 2.92498 9.73321 2.92498 9.84911C2.92498 10.2057 3.05624 10.6714 3.38356 11.0421C3.69895 11.3993 4.22647 11.7027 5.09353 11.7027C5.52542 11.7027 5.9222 11.6285 6.25728 11.5055C6.39535 11.4548 6.54911 11.4732 6.67152 11.5552C6.79392 11.6371 6.87041 11.7727 6.87757 11.9206L6.88414 12.0565C6.88476 12.0692 6.88486 12.0819 6.88444 12.0947C6.88213 12.1644 6.87921 12.2086 6.87674 12.2461C6.87383 12.2901 6.87154 12.3249 6.87154 12.3807C6.87154 13.2161 7.26017 13.8627 7.75002 14.6776C7.76373 14.7004 7.77751 14.7234 7.79137 14.7465C8.04192 15.1636 8.3083 15.6169 8.51051 16.1368C8.82527 15.8521 9.24143 15.679 9.69785 15.679H14.3022C14.7491 15.679 15.1575 15.845 15.4698 16.1192C15.6749 15.5839 15.9517 15.1241 16.2114 14.7026C16.2251 14.6803 16.2388 14.6582 16.2524 14.6361C16.7419 13.8422 17.1285 13.2153 17.1285 12.3807C17.1285 12.3249 17.1262 12.29 17.1233 12.2461C17.1208 12.2086 17.1179 12.1644 17.1156 12.0947C17.1152 12.082 17.1153 12.0693 17.1159 12.0565L17.1224 11.9207C17.1296 11.7728 17.206 11.6371 17.3285 11.5552C17.4509 11.4732 17.6046 11.4548 17.7427 11.5055C18.0778 11.6285 18.4746 11.7027 18.9065 11.7027C19.7735 11.7027 20.3011 11.3993 20.6164 11.0421C20.9438 10.6714 21.075 10.2057 21.075 9.84911C21.075 9.73321 21.0427 9.67727 21.0014 9.63505C20.947 9.57939 20.8402 9.51359 20.6425 9.45786C20.2376 9.34372 19.6439 9.32101 18.9065 9.32101C18.4772 9.32101 18.1122 9.41202 17.8547 9.50333C17.7414 9.54354 17.6502 9.58332 17.5853 9.6143C17.5388 9.63972 17.4916 9.66456 17.4438 9.6888C17.3211 9.751 17.1773 9.75504 17.0514 9.69983C16.9254 9.64461 16.8304 9.53586 16.7919 9.40302C16.5738 8.6495 16.2604 7.96349 15.8731 7.37198C15.7737 7.22005 15.6508 7.08864 15.5115 6.98219C15.4945 6.97137 15.4782 6.95941 15.4626 6.94636C15.2111 6.76935 14.9107 6.67012 14.5983 6.67012H9.39868C9.09272 6.67012 8.79939 6.76412 8.55129 6.93414C8.52695 6.95631 8.50047 6.97565 8.47238 6.99198C8.33908 7.09633 8.22109 7.22393 8.12412 7.37162C7.7453 7.95335 7.4374 8.62191 7.22008 9.35191C7.2115 9.40193 7.19462 9.45134 7.16891 9.49816C7.08566 9.64973 6.93044 9.73671 6.76919 9.73857C6.7236 9.73937 6.67712 9.73333 6.63106 9.71974C6.59044 9.70775 6.55269 9.69064 6.51831 9.66931C6.48352 9.65132 6.44907 9.63301 6.41498 9.61439ZM6.50145 8.57653C6.72569 7.95808 7.01172 7.38089 7.35117 6.85972L7.35198 6.85848C7.39163 6.79802 7.43362 6.73959 7.47779 6.68328C6.95716 6.30592 6.60432 5.77834 6.60432 5.06757C6.60432 4.98139 6.60975 4.89759 6.62027 4.81612C6.34537 4.93151 6.13885 5.11367 5.98264 5.33211C5.69637 5.7324 5.55602 6.291 5.55602 6.87018C5.55602 7.57808 5.87524 8.13689 6.50145 8.57653ZM16.5203 6.68458C16.5642 6.74061 16.6059 6.79872 16.6452 6.85879C16.9856 7.37875 17.2722 7.95679 17.4966 8.57795C18.1241 8.13811 18.4439 7.57887 18.4439 6.87018C18.4439 6.30011 18.2888 5.7404 17.9913 5.33587C17.8342 5.12221 17.634 4.94591 17.3815 4.83042C17.3908 4.90755 17.3956 4.98662 17.3956 5.06757C17.3956 5.77916 17.0419 6.30713 16.5203 6.68458ZM15.1552 17.7984V17.4704C15.1552 16.9955 14.7736 16.6109 14.3022 16.6109H9.69785C9.22645 16.6109 8.84482 16.9955 8.84482 17.4704V18.1331C8.84482 18.8151 9.15895 19.3407 9.70179 19.7135C10.2591 20.0962 11.065 20.318 12 20.318C12.935 20.318 13.7409 20.0962 14.2982 19.7135C14.8411 19.3407 15.1552 18.8151 15.1552 18.1331V17.8028C15.1552 17.8025 15.1552 17.8021 15.1552 17.8018C15.1552 17.8006 15.1552 17.7995 15.1552 17.7984Z" fill="#464542"/>
</svg>
