<svg width="32" height="30" viewBox="0 0 32 30" fill="none" xmlns="http://www.w3.org/2000/svg">
<path d="M24.4907 9.80535C24.1174 8.52535 23.5787 7.35202 22.9067 6.33335C22.3094 5.42669 21.3014 4.86669 20.2134 4.86669C18.0107 4.86669 13.984 4.86669 11.7814 4.86669C10.6934 4.86669 9.69071 5.42135 9.08804 6.33335C8.41604 7.35735 7.87737 8.53069 7.50404 9.80535M24.4907 9.80535C26.176 8.95735 27.1997 7.70402 27.1997 5.93869C27.1997 3.85869 26.069 1.66669 23.541 1.66669C23.8344 2.05602 23.9997 2.50935 23.9997 3.03735C23.9997 4.15202 23.2797 4.94669 22.0957 5.48535M24.4907 9.80535C24.4907 9.80535 25.5998 9.13335 27.1998 9.13335C29.5572 9.13335 31.4665 9.26135 31.4665 10.7334C31.4665 12.2054 30.3998 14.4667 27.1998 14.4667C26.4158 14.4667 25.6852 14.3334 25.0558 14.104M9.90387 5.48535C8.71987 4.94669 7.99987 4.15202 7.99987 3.03735C7.99987 2.50935 8.1652 2.06135 8.45854 1.66669C5.80254 1.66669 4.79987 3.86402 4.79987 5.93869C4.79987 7.70402 5.82387 8.95735 7.5092 9.80535C7.5092 9.80535 6.39987 9.13335 4.79987 9.13335C2.44254 9.13335 0.533203 9.26135 0.533203 10.7334C0.533203 12.2054 1.59987 14.4667 4.79987 14.4667C5.58387 14.4667 6.31454 14.3334 6.94387 14.104M6.95454 14.3227C6.9492 14.4827 6.9332 14.6427 6.9332 14.808C6.9332 18.0667 10.1332 19.656 10.1332 23.5333M21.8665 23.5333C21.8665 19.656 25.0665 18.072 25.0665 14.808C25.0665 14.6427 25.0505 14.4827 25.0452 14.3227M10.1332 24.0667V23C10.1332 21.8213 11.0879 20.8667 12.2665 20.8667H19.7332C20.9119 20.8667 21.8665 21.8213 21.8665 23V24.0667C21.8665 26.8133 19.2425 28.3333 15.9999 28.3333C12.7572 28.3333 10.1332 26.8133 10.1332 24.0667Z" stroke="#464542" stroke-width="1.5" stroke-linecap="round" stroke-linejoin="round"/>
</svg>
