<svg width="24" height="22" viewBox="0 0 24 22" fill="none" xmlns="http://www.w3.org/2000/svg">
<path fill-rule="evenodd" clip-rule="evenodd" d="M3.87861 1.74476C4.41486 0.994901 5.2598 0.5 6.41958 0.5C6.62936 0.5 6.82121 0.619176 6.91543 0.808018C7.00965 0.99686 6.99014 1.22309 6.86501 1.39273C6.71391 1.59755 6.63516 1.81604 6.63516 2.08109C6.63516 2.54016 6.87439 2.93342 7.45286 3.26181C7.88081 3.01977 8.36863 2.8858 8.87841 2.8858H15.1179C15.6275 2.8858 16.1163 3.02073 16.5447 3.26316C17.1249 2.9345 17.3648 2.54079 17.3648 2.08109C17.3648 1.81411 17.2848 1.59326 17.1371 1.39565C17.0104 1.22632 16.9898 0.999389 17.0837 0.80965C17.1776 0.619911 17.3699 0.5 17.5803 0.5C18.6993 0.5 19.5385 0.998994 20.0814 1.73727C20.6105 2.45666 20.8427 3.37752 20.8427 4.24421C20.8427 4.9451 20.6603 5.55002 20.3391 6.06689C21.1816 6.06775 22.0265 6.09101 22.6701 6.27245C23.0041 6.36661 23.3382 6.51728 23.5923 6.77705C23.8621 7.05293 24 7.40929 24 7.81894C24 8.48853 23.7629 9.32135 23.169 9.99388C22.5608 10.6826 21.6152 11.1615 20.2878 11.1615C19.9313 11.1615 19.5862 11.1277 19.2591 11.0643C19.1988 12.2911 18.6135 13.2365 18.09 14.082C18.0586 14.1327 18.0275 14.183 17.9967 14.2329C17.4094 15.1861 16.8972 16.0856 16.8962 17.3585C16.8962 17.3597 16.8962 17.3609 16.8962 17.3621L16.8962 17.7598C16.8962 18.9892 16.3023 19.949 15.383 20.5803C14.4811 21.1996 13.2775 21.5 12 21.5C10.7225 21.5 9.51896 21.1996 8.61704 20.5803C7.69771 19.949 7.10381 18.9892 7.10381 17.7598V17.4596C7.10381 16.1821 6.58911 15.2556 6.00001 14.2747C5.96892 14.223 5.93748 14.1709 5.90582 14.1184C5.38323 13.2525 4.80107 12.2879 4.74096 11.0643C4.41386 11.1277 4.06872 11.1615 3.71224 11.1615C2.38477 11.1615 1.43917 10.6826 0.830996 9.99388C0.237142 9.32135 0 8.48853 0 7.81894C0 7.40929 0.137859 7.05293 0.407721 6.77705C0.66182 6.51728 0.995898 6.36661 1.32993 6.27245C1.97354 6.09101 2.81836 6.06775 3.66088 6.06689C3.33965 5.55002 3.15725 4.94511 3.15725 4.24421C3.15725 3.39244 3.3598 2.47023 3.87861 1.74476ZM5.29797 7.53727C5.22004 7.50007 5.11058 7.45229 4.9744 7.404C4.66539 7.29443 4.22734 7.18521 3.71224 7.18521C2.82732 7.18521 2.11485 7.21247 1.62901 7.34943C1.39177 7.4163 1.26361 7.49527 1.19828 7.56206C1.14872 7.61273 1.10997 7.67985 1.10997 7.81894C1.10997 8.24681 1.26748 8.8057 1.66027 9.25053C2.03874 9.67913 2.67176 10.0432 3.71224 10.0432C4.23051 10.0432 4.70664 9.95424 5.10874 9.8066C5.27442 9.74577 5.45893 9.76789 5.60582 9.86619C5.75271 9.9645 5.84449 10.1273 5.85308 10.3047L5.86097 10.4678C5.86171 10.483 5.86183 10.4983 5.86132 10.5136C5.85856 10.5972 5.85506 10.6503 5.85208 10.6953C5.8486 10.7481 5.84584 10.7898 5.84584 10.8568C5.84584 11.8594 6.3122 12.6352 6.90002 13.6132C6.91647 13.6405 6.93301 13.6681 6.94965 13.6957C7.2503 14.1963 7.56996 14.7402 7.81261 15.3641C8.19032 15.0225 8.68971 14.8148 9.23742 14.8148H14.7626C15.2989 14.8148 15.7889 15.014 16.1637 15.343C16.4098 14.7006 16.742 14.1489 17.0537 13.6431C17.0702 13.6164 17.0865 13.5898 17.1028 13.5634C17.6903 12.6106 18.1542 11.8584 18.1542 10.8568C18.1542 10.7898 18.1514 10.7481 18.1479 10.6953C18.145 10.6503 18.1415 10.5972 18.1387 10.5136C18.1382 10.4984 18.1383 10.4831 18.1391 10.4679L18.1469 10.3048C18.1555 10.1274 18.2472 9.96455 18.3941 9.86622C18.541 9.7679 18.7256 9.74577 18.8913 9.8066C19.2934 9.95424 19.7695 10.0432 20.2878 10.0432C21.3282 10.0432 21.9613 9.67913 22.3397 9.25053C22.7325 8.8057 22.89 8.24681 22.89 7.81894C22.89 7.67985 22.8513 7.61273 22.8017 7.56206C22.7364 7.49527 22.6082 7.4163 22.371 7.34943C21.8852 7.21247 21.1727 7.18521 20.2878 7.18521C19.7727 7.18521 19.3347 7.29443 19.0257 7.404C18.8897 7.45224 18.7803 7.49998 18.7024 7.53716C18.6465 7.56767 18.5899 7.59747 18.5325 7.62656C18.3853 7.7012 18.2128 7.70604 18.0616 7.63979C17.9105 7.57354 17.7964 7.44304 17.7503 7.28362C17.4885 6.3794 17.1124 5.55618 16.6477 4.84638C16.5285 4.66406 16.381 4.50637 16.2138 4.37863C16.1934 4.36565 16.1738 4.35129 16.1551 4.33563C15.8533 4.12322 15.4928 4.00414 15.1179 4.00414H8.87841C8.51126 4.00414 8.15927 4.11694 7.86155 4.32097C7.83234 4.34757 7.80056 4.37079 7.76686 4.39038C7.6069 4.5156 7.4653 4.66872 7.34894 4.84594C6.89436 5.54401 6.52488 6.34629 6.2641 7.2223C6.2538 7.28232 6.23354 7.34161 6.20269 7.39779C6.10279 7.57968 5.91653 7.68405 5.72303 7.68629C5.66832 7.68724 5.61255 7.68 5.55727 7.66368C5.50853 7.6493 5.46323 7.62877 5.42197 7.60318C5.38022 7.58159 5.33888 7.55962 5.29797 7.53727ZM5.40174 6.29184C5.67082 5.5497 6.01406 4.85706 6.4214 4.23167L6.42237 4.23018C6.46996 4.15763 6.52035 4.0875 6.57334 4.01993C5.94859 3.5671 5.52519 2.93401 5.52519 2.08109C5.52519 1.97767 5.53169 1.87711 5.54433 1.77934C5.21444 1.91782 4.96662 2.1364 4.77916 2.39853C4.43565 2.87888 4.26722 3.5492 4.26722 4.24421C4.26722 5.09369 4.65028 5.76427 5.40174 6.29184ZM17.4244 4.0215C17.4771 4.08873 17.5271 4.15846 17.5742 4.23055C17.9827 4.8545 18.3266 5.54815 18.596 6.29354C19.3489 5.76574 19.7327 5.09465 19.7327 4.24421C19.7327 3.56014 19.5466 2.88847 19.1896 2.40304C19.001 2.14666 18.7607 1.93509 18.4578 1.79651C18.469 1.88906 18.4747 1.98394 18.4747 2.08109C18.4747 2.93499 18.0503 3.56856 17.4244 4.0215ZM15.7863 17.3581V16.9645C15.7863 16.3945 15.3283 15.9331 14.7626 15.9331H9.23742C8.67174 15.9331 8.21378 16.3945 8.21378 16.9645V17.7598C8.21378 18.5781 8.59074 19.2089 9.24215 19.6562C9.91095 20.1154 10.878 20.3817 12 20.3817C13.122 20.3817 14.0891 20.1154 14.7579 19.6562C15.4093 19.2089 15.7863 18.5781 15.7863 17.7598V17.3634C15.7863 17.363 15.7862 17.3625 15.7862 17.3621C15.7862 17.3608 15.7863 17.3594 15.7863 17.3581Z" fill="#464542"/>
</svg>
