<svg width="24" height="24" viewBox="0 0 24 24" fill="none" xmlns="http://www.w3.org/2000/svg">
<g clip-path="url(#clip0_2186_5207)">
<path fill-rule="evenodd" clip-rule="evenodd" d="M3.87861 2.74476C4.41486 1.9949 5.2598 1.5 6.41958 1.5C6.62936 1.5 6.82121 1.61918 6.91543 1.80802C7.00965 1.99686 6.99014 2.22309 6.86501 2.39273C6.71391 2.59755 6.63516 2.81604 6.63516 3.08109C6.63516 3.54016 6.87439 3.93342 7.45286 4.26181C7.88081 4.01977 8.36863 3.8858 8.87841 3.8858H15.1179C15.6275 3.8858 16.1163 4.02073 16.5447 4.26316C17.1249 3.9345 17.3648 3.54079 17.3648 3.08109C17.3648 2.81411 17.2848 2.59326 17.1371 2.39565C17.0104 2.22632 16.9898 1.99939 17.0837 1.80965C17.1776 1.61991 17.3699 1.5 17.5803 1.5C18.6993 1.5 19.5385 1.99899 20.0814 2.73727C20.6105 3.45666 20.8427 4.37752 20.8427 5.24421C20.8427 5.9451 20.6603 6.55002 20.3391 7.06689C21.1816 7.06775 22.0265 7.09101 22.6701 7.27245C23.0041 7.36661 23.3382 7.51728 23.5923 7.77705C23.8621 8.05293 24 8.40929 24 8.81894C24 9.48853 23.7629 10.3214 23.169 10.9939C22.5608 11.6826 21.6152 12.1615 20.2878 12.1615C19.9313 12.1615 19.5862 12.1277 19.2591 12.0643C19.1988 13.2911 18.6135 14.2365 18.09 15.082C18.0586 15.1327 18.0275 15.183 17.9967 15.2329C17.4094 16.1861 16.8972 17.0856 16.8962 18.3585C16.8962 18.3597 16.8962 18.3609 16.8962 18.3621L16.8962 18.7598C16.8962 19.9892 16.3023 20.949 15.383 21.5803C14.4811 22.1996 13.2775 22.5 12 22.5C10.7225 22.5 9.51896 22.1996 8.61704 21.5803C7.69771 20.949 7.10381 19.9892 7.10381 18.7598V18.4596C7.10381 17.1821 6.58911 16.2556 6.00001 15.2747C5.96892 15.223 5.93748 15.1709 5.90582 15.1184C5.38323 14.2525 4.80107 13.2879 4.74096 12.0643C4.41386 12.1277 4.06872 12.1615 3.71224 12.1615C2.38477 12.1615 1.43917 11.6826 0.830996 10.9939C0.237142 10.3214 0 9.48853 0 8.81894C0 8.40929 0.137859 8.05293 0.407721 7.77705C0.66182 7.51728 0.995898 7.36661 1.32993 7.27245C1.97354 7.09101 2.81836 7.06775 3.66088 7.06689C3.33965 6.55002 3.15725 5.94511 3.15725 5.24421C3.15725 4.39244 3.3598 3.47023 3.87861 2.74476ZM5.29797 8.53727C5.22004 8.50007 5.11058 8.45229 4.9744 8.404C4.66539 8.29443 4.22734 8.18521 3.71224 8.18521C2.82732 8.18521 2.11485 8.21247 1.62901 8.34943C1.39177 8.4163 1.26361 8.49527 1.19828 8.56206C1.14872 8.61273 1.10997 8.67985 1.10997 8.81894C1.10997 9.24681 1.26748 9.8057 1.66027 10.2505C2.03874 10.6791 2.67176 11.0432 3.71224 11.0432C4.23051 11.0432 4.70664 10.9542 5.10874 10.8066C5.27442 10.7458 5.45893 10.7679 5.60582 10.8662C5.75271 10.9645 5.84449 11.1273 5.85308 11.3047L5.86097 11.4678C5.86171 11.483 5.86183 11.4983 5.86132 11.5136C5.85856 11.5972 5.85506 11.6503 5.85208 11.6953C5.8486 11.7481 5.84584 11.7898 5.84584 11.8568C5.84584 12.8594 6.3122 13.6352 6.90002 14.6132C6.91647 14.6405 6.93301 14.6681 6.94965 14.6957C7.2503 15.1963 7.56996 15.7402 7.81261 16.3641C8.19032 16.0225 8.68971 15.8148 9.23742 15.8148H14.7626C15.2989 15.8148 15.7889 16.014 16.1637 16.343C16.4098 15.7006 16.742 15.1489 17.0537 14.6431C17.0702 14.6164 17.0865 14.5898 17.1028 14.5634C17.6903 13.6106 18.1542 12.8584 18.1542 11.8568C18.1542 11.7898 18.1514 11.7481 18.1479 11.6953C18.145 11.6503 18.1415 11.5972 18.1387 11.5136C18.1382 11.4984 18.1383 11.4831 18.1391 11.4679L18.1469 11.3048C18.1555 11.1274 18.2472 10.9645 18.3941 10.8662C18.541 10.7679 18.7256 10.7458 18.8913 10.8066C19.2934 10.9542 19.7695 11.0432 20.2878 11.0432C21.3282 11.0432 21.9613 10.6791 22.3397 10.2505C22.7325 9.8057 22.89 9.24681 22.89 8.81894C22.89 8.67985 22.8513 8.61273 22.8017 8.56206C22.7364 8.49527 22.6082 8.4163 22.371 8.34943C21.8852 8.21247 21.1727 8.18521 20.2878 8.18521C19.7727 8.18521 19.3347 8.29443 19.0257 8.404C18.8897 8.45224 18.7803 8.49998 18.7024 8.53716C18.6465 8.56767 18.5899 8.59747 18.5325 8.62656C18.3853 8.7012 18.2128 8.70604 18.0616 8.63979C17.9105 8.57354 17.7964 8.44304 17.7503 8.28362C17.4885 7.3794 17.1124 6.55618 16.6477 5.84638C16.5285 5.66406 16.381 5.50637 16.2138 5.37863C16.1934 5.36565 16.1738 5.35129 16.1551 5.33563C15.8533 5.12322 15.4928 5.00414 15.1179 5.00414H8.87841C8.51126 5.00414 8.15927 5.11694 7.86155 5.32097C7.83234 5.34757 7.80056 5.37079 7.76686 5.39038C7.6069 5.5156 7.4653 5.66872 7.34894 5.84594C6.89436 6.54401 6.52488 7.34629 6.2641 8.2223C6.2538 8.28232 6.23354 8.34161 6.20269 8.39779C6.10279 8.57968 5.91653 8.68405 5.72303 8.68629C5.66832 8.68724 5.61255 8.68 5.55727 8.66368C5.50853 8.6493 5.46323 8.62877 5.42197 8.60318C5.38022 8.58159 5.33888 8.55962 5.29797 8.53727ZM5.40174 7.29184C5.67082 6.5497 6.01406 5.85706 6.4214 5.23167L6.42237 5.23018C6.46996 5.15763 6.52035 5.0875 6.57334 5.01993C5.94859 4.5671 5.52519 3.93401 5.52519 3.08109C5.52519 2.97767 5.53169 2.87711 5.54433 2.77934C5.21444 2.91782 4.96662 3.1364 4.77916 3.39853C4.43565 3.87888 4.26722 4.5492 4.26722 5.24421C4.26722 6.09369 4.65028 6.76427 5.40174 7.29184ZM17.4244 5.0215C17.4771 5.08873 17.5271 5.15846 17.5742 5.23055C17.9827 5.8545 18.3266 6.54815 18.596 7.29354C19.3489 6.76574 19.7327 6.09465 19.7327 5.24421C19.7327 4.56014 19.5466 3.88847 19.1896 3.40304C19.001 3.14666 18.7607 2.93509 18.4578 2.79651C18.469 2.88906 18.4747 2.98394 18.4747 3.08109C18.4747 3.93499 18.0503 4.56856 17.4244 5.0215ZM15.7863 18.3581V17.9645C15.7863 17.3945 15.3283 16.9331 14.7626 16.9331H9.23742C8.67174 16.9331 8.21378 17.3945 8.21378 17.9645V18.7598C8.21378 19.5781 8.59074 20.2089 9.24215 20.6562C9.91095 21.1154 10.878 21.3817 12 21.3817C13.122 21.3817 14.0891 21.1154 14.7579 20.6562C15.4093 20.2089 15.7863 19.5781 15.7863 18.7598V18.3634C15.7863 18.363 15.7862 18.3625 15.7862 18.3621C15.7862 18.3608 15.7863 18.3594 15.7863 18.3581Z" fill="#464542"/>
</g>
<defs>
<clipPath id="clip0_2186_5207">
<rect width="24" height="24" fill="white"/>
</clipPath>
</defs>
</svg>
