<svg width="24" height="24" viewBox="0 0 24 24" fill="none" xmlns="http://www.w3.org/2000/svg">
<path d="M5.83207 19.1512L6.2729 18.5444L5.83207 19.1512ZM4.84881 18.1679L5.45558 17.7271L4.84881 18.1679ZM19.1512 18.1679L18.5444 17.7271L19.1512 18.1679ZM18.1679 19.1512L17.7271 18.5444L18.1679 19.1512ZM18.1679 4.84881L17.7271 5.45558L18.1679 4.84881ZM19.1512 5.83207L18.5444 6.2729L19.1512 5.83207ZM5.83207 4.84881L6.2729 5.45558L5.83207 4.84881ZM4.84881 5.83207L5.45558 6.2729L4.84881 5.83207ZM8.44444 14.8056C8.03023 14.8056 7.69444 15.1413 7.69444 15.5556C7.69444 15.9698 8.03023 16.3056 8.44444 16.3056V14.8056ZM15.5556 16.3056C15.9698 16.3056 16.3056 15.9698 16.3056 15.5556C16.3056 15.1413 15.9698 14.8056 15.5556 14.8056V16.3056ZM8.44444 11.25C8.03023 11.25 7.69444 11.5858 7.69444 12C7.69444 12.4142 8.03023 12.75 8.44444 12.75V11.25ZM11.1111 12.75C11.5253 12.75 11.8611 12.4142 11.8611 12C11.8611 11.5858 11.5253 11.25 11.1111 11.25V12.75ZM8.44444 7.69444C8.03023 7.69444 7.69444 8.03023 7.69444 8.44444C7.69444 8.85866 8.03023 9.19444 8.44444 9.19444V7.69444ZM15.5556 9.19444C15.9698 9.19444 16.3056 8.85866 16.3056 8.44444C16.3056 8.03023 15.9698 7.69444 15.5556 7.69444V9.19444ZM19.25 11.1111V12.8889H20.75V11.1111H19.25ZM4.75 12.8889V11.1111H3.25V12.8889H4.75ZM12 19.25C10.3167 19.25 9.11455 19.249 8.18502 19.1483C7.26952 19.0491 6.70789 18.8605 6.2729 18.5444L5.39123 19.758C6.12453 20.2907 6.98032 20.5265 8.02345 20.6395C9.05253 20.751 10.3502 20.75 12 20.75V19.25ZM3.25 12.8889C3.25 14.5291 3.24814 15.6222 3.36336 16.4443C3.48758 17.3307 3.75007 17.9316 4.24205 18.6088L5.45558 17.7271C5.09874 17.236 4.93682 16.8639 4.84884 16.2361C4.75186 15.5441 4.75 14.5818 4.75 12.8889H3.25ZM6.2729 18.5444C5.95927 18.3166 5.68345 18.0407 5.45558 17.7271L4.24205 18.6088C4.56244 19.0498 4.95025 19.4376 5.39123 19.758L6.2729 18.5444ZM19.25 12.8889C19.25 14.5818 19.2481 15.5441 19.1512 16.2361C19.0632 16.8639 18.9013 17.236 18.5444 17.7271L19.758 18.6088C20.2499 17.9316 20.5124 17.3307 20.6366 16.4443C20.7519 15.6222 20.75 14.5291 20.75 12.8889H19.25ZM12 20.75C13.6498 20.75 14.9475 20.751 15.9766 20.6395C17.0197 20.5265 17.8755 20.2907 18.6088 19.758L17.7271 18.5444C17.2921 18.8605 16.7305 19.0491 15.815 19.1483C14.8855 19.249 13.6833 19.25 12 19.25V20.75ZM18.5444 17.7271C18.3166 18.0407 18.0407 18.3166 17.7271 18.5444L18.6088 19.758C19.0498 19.4376 19.4376 19.0498 19.758 18.6088L18.5444 17.7271ZM12 4.75C13.6833 4.75 14.8855 4.75103 15.815 4.85174C16.7305 4.95093 17.2921 5.13954 17.7271 5.45558L18.6088 4.24205C17.8755 3.70927 17.0197 3.47348 15.9766 3.36047C14.9475 3.24897 13.6498 3.25 12 3.25V4.75ZM20.75 11.1111C20.75 9.90407 20.7512 8.82541 20.6384 7.90214C20.5242 6.96831 20.2864 6.11864 19.758 5.39123L18.5444 6.2729C18.8647 6.71379 19.0514 7.28153 19.1494 8.0841C19.2488 8.89723 19.25 9.87394 19.25 11.1111H20.75ZM17.7271 5.45558C18.0407 5.68345 18.3166 5.95927 18.5444 6.2729L19.758 5.39123C19.4376 4.95025 19.0498 4.56244 18.6088 4.24205L17.7271 5.45558ZM12 3.25C10.3502 3.25 9.05253 3.24897 8.02345 3.36047C6.98032 3.47348 6.12453 3.70927 5.39123 4.24205L6.2729 5.45558C6.70789 5.13954 7.26952 4.95093 8.18502 4.85174C9.11455 4.75103 10.3167 4.75 12 4.75V3.25ZM4.75 11.1111C4.75 9.87394 4.75119 8.89723 4.85056 8.0841C4.94864 7.28153 5.13526 6.71379 5.45558 6.2729L4.24205 5.39123C3.71356 6.11864 3.47576 6.96831 3.36164 7.90214C3.24881 8.82541 3.25 9.90407 3.25 11.1111H4.75ZM5.39123 4.24205C4.95025 4.56244 4.56244 4.95025 4.24205 5.39123L5.45558 6.2729C5.68345 5.95927 5.95927 5.68345 6.2729 5.45558L5.39123 4.24205ZM8.44444 16.3056H15.5556V14.8056H8.44444V16.3056ZM8.44444 12.75H11.1111V11.25H8.44444V12.75ZM8.44444 9.19444H15.5556V7.69444H8.44444V9.19444Z" fill="#464542"/>
</svg>
