<svg width="24" height="24" viewBox="0 0 24 24" fill="none" xmlns="http://www.w3.org/2000/svg">
<path fillRule="evenodd" clipRule="evenodd" d="M12 4.63636C13.3807 4.63636 14.5 5.7353 14.5 7.09091C14.5 8.44652 13.3807 9.54545 12 9.54545C10.6193 9.54545 9.5 8.44652 9.5 7.09091C9.5 5.7353 10.6193 4.63636 12 4.63636ZM16.1667 7.09091C16.1667 4.83156 14.3012 3 12 3C9.69881 3 7.83333 4.83156 7.83333 7.09091C7.83333 9.35026 9.69881 11.1818 12 11.1818C14.3012 11.1818 16.1667 9.35026 16.1667 7.09091ZM19.5 16.9091C19.5 14.6497 17.6345 12.8182 15.3333 12.8182H8.66667C6.36548 12.8182 4.5 14.6497 4.5 16.9091C4.5 19.1684 6.36548 21 8.66667 21H15.3333C17.6345 21 19.5 19.1684 19.5 16.9091ZM15.3333 14.4545C16.714 14.4545 17.8333 15.5535 17.8333 16.9091C17.8333 18.2647 16.714 19.3636 15.3333 19.3636H8.66667C7.28596 19.3636 6.16667 18.2647 6.16667 16.9091C6.16667 15.5535 7.28596 14.4545 8.66667 14.4545H15.3333Z" fill="#464542"/>
</svg>
