<svg width="24" height="24" viewBox="0 0 24 24" fill="none" xmlns="http://www.w3.org/2000/svg">
<path fill-rule="evenodd" clip-rule="evenodd" d="M12.4141 2.54651C6.91406 2.54651 2.41406 7.04651 2.41406 12.5465C2.41406 18.0465 6.91406 22.5465 12.4141 22.5465C17.9141 22.5465 22.4141 18.0465 22.4141 12.5465C22.4141 7.04651 17.9141 2.54651 12.4141 2.54651ZM9.60156 16.984L6.41406 13.7965C5.97656 13.359 5.97656 12.5465 6.41406 12.109C6.85156 11.6715 7.66406 11.6715 8.10156 12.109L10.4766 14.4215L16.4141 8.48401C16.8516 8.04651 17.6641 8.04651 18.1016 8.48401C18.5391 8.92151 18.5391 9.73401 18.1016 10.1715L11.3516 16.984C10.8516 17.4215 10.1016 17.4215 9.60156 16.984Z" fill="#5D9D52"/>
</svg>
