<svg width="21" height="21" viewBox="0 0 21 21" fill="none" xmlns="http://www.w3.org/2000/svg">
<path fill-rule="evenodd" clip-rule="evenodd" d="M10.4141 18.4535C14.8323 18.4535 18.4141 14.8718 18.4141 10.4535C18.4141 6.03521 14.8323 2.45349 10.4141 2.45349C5.99578 2.45349 2.41406 6.03521 2.41406 10.4535C2.41406 14.8718 5.99578 18.4535 10.4141 18.4535ZM10.4141 20.4535C15.9369 20.4535 20.4141 15.9763 20.4141 10.4535C20.4141 4.93064 15.9369 0.453491 10.4141 0.453491C4.89121 0.453491 0.414062 4.93064 0.414062 10.4535C0.414062 15.9763 4.89121 20.4535 10.4141 20.4535Z" fill="#5D9D52"/>
<path fill-rule="evenodd" clip-rule="evenodd" d="M15.1538 7.10912C15.5443 7.49964 15.5443 8.13281 15.1538 8.52333L9.50103 14.1761C9.11051 14.5666 8.47734 14.5666 8.08682 14.1761L5.42662 11.5159C5.0361 11.1254 5.0361 10.4922 5.42662 10.1017C5.81715 9.71118 6.45031 9.71118 6.84083 10.1017L8.79392 12.0548L13.7396 7.10912C14.1301 6.71859 14.7633 6.71859 15.1538 7.10912Z" fill="#5D9D52"/>
</svg>
