<svg width="24" height="24" viewBox="0 0 24 24" fill="none" xmlns="http://www.w3.org/2000/svg">
<path fill-rule="evenodd" clip-rule="evenodd" d="M12.4141 20.4535C16.8323 20.4535 20.4141 16.8718 20.4141 12.4535C20.4141 8.03521 16.8323 4.45349 12.4141 4.45349C7.99578 4.45349 4.41406 8.03521 4.41406 12.4535C4.41406 16.8718 7.99578 20.4535 12.4141 20.4535ZM12.4141 22.4535C17.9369 22.4535 22.4141 17.9763 22.4141 12.4535C22.4141 6.93064 17.9369 2.45349 12.4141 2.45349C6.89121 2.45349 2.41406 6.93064 2.41406 12.4535C2.41406 17.9763 6.89121 22.4535 12.4141 22.4535Z" fill="#5D9D52"/>
<path fill-rule="evenodd" clip-rule="evenodd" d="M17.1538 9.10912C17.5443 9.49964 17.5443 10.1328 17.1538 10.5233L11.501 16.1761C11.1105 16.5666 10.4773 16.5666 10.0868 16.1761L7.42662 13.5159C7.0361 13.1254 7.0361 12.4922 7.42662 12.1017C7.81715 11.7112 8.45031 11.7112 8.84083 12.1017L10.7939 14.0548L15.7396 9.10912C16.1301 8.71859 16.7633 8.71859 17.1538 9.10912Z" fill="#5D9D52"/>
</svg>
