<svg width="24" height="24" viewBox="0 0 24 24" fill="none" xmlns="http://www.w3.org/2000/svg">
<path fillRule="evenodd" clipRule="evenodd" d="M16.9174 10.6824C16.7408 10.6824 16.5642 10.6824 16.4759 10.6824C17.3589 9.53452 17.4472 8.12172 17.4472 7.23872C17.4472 6.97382 17.2706 6.79722 17.0057 6.79722C16.2993 6.70892 15.4163 6.79722 14.6216 7.15042C14.6216 7.06212 14.6216 7.06212 14.6216 6.97382V6.88552C14.6216 5.11951 13.4737 3.70671 12.679 3.00031C12.5024 2.82371 12.1492 2.82371 11.9726 3.00031C11.1779 3.79501 10.1183 5.20781 10.1183 6.88552V6.97382C10.1183 7.06212 10.1183 7.06212 10.1183 7.15042C9.23533 6.79722 8.35233 6.70892 7.73423 6.79722C7.46933 6.79722 7.29272 6.97382 7.29272 7.23872C7.29272 8.12172 7.38102 9.53452 8.26403 10.6824C8.08743 10.6824 7.91083 10.6824 7.82253 10.6824C7.55763 10.6824 7.38102 10.859 7.38102 11.1239C7.38102 12.0069 7.46933 13.4197 8.35233 14.5676C8.17573 14.5676 7.99913 14.5676 7.91083 14.5676C7.64593 14.5676 7.46933 14.7442 7.46933 15.0091C7.46933 15.9804 7.64593 17.6581 8.79383 18.806C9.76513 19.7774 11.0896 20.0423 12.0609 20.1306V22.3381C12.0609 22.603 12.3258 22.8679 12.5907 22.8679C12.8556 22.8679 12.8556 22.603 12.8556 22.3381V20.1306C13.8269 20.0423 15.1514 19.7774 16.1227 18.806C17.2706 17.6581 17.4472 15.9804 17.4472 15.0091C17.4472 14.7442 17.2706 14.5676 17.0057 14.5676C16.8291 14.5676 16.6525 14.5676 16.5642 14.5676C17.4472 13.4197 17.5356 12.0069 17.5356 11.1239C17.4472 10.859 17.1823 10.6824 16.9174 10.6824ZM9.23533 18.0996C8.52893 17.3932 8.26403 16.3336 8.26403 15.5389C9.14703 15.6272 10.1183 15.8038 10.8247 16.5102C11.5311 17.2166 11.796 18.2762 11.796 19.0709C11.0013 19.0709 9.94173 18.806 9.23533 18.0996ZM9.23533 14.2144C8.52893 13.508 8.26403 12.4484 8.26403 11.6537C9.14703 11.742 10.1183 11.9186 10.8247 12.625C11.5311 13.3314 11.796 14.391 11.796 15.1857C11.0013 15.1857 9.94173 14.9208 9.23533 14.2144ZM9.23533 10.3292C8.52893 9.62283 8.26403 8.56322 8.26403 7.76852C9.14703 7.85682 10.1183 8.03342 10.8247 8.73982C11.5311 9.44622 11.796 10.5058 11.796 11.3005C11.0013 11.3005 9.94173 11.0356 9.23533 10.3292ZM12.3258 17.04C12.2375 16.7751 12.0609 16.5102 11.8843 16.2453C12.0609 16.2453 12.1492 16.2453 12.3258 16.2453H12.4141C12.5024 16.2453 12.679 16.2453 12.8556 16.2453C12.5907 16.5102 12.5024 16.7751 12.3258 17.04ZM12.3258 13.1548C12.2375 12.8899 12.0609 12.625 11.8843 12.3601C12.0609 12.3601 12.1492 12.3601 12.3258 12.3601H12.4141C12.5024 12.3601 12.679 12.3601 12.8556 12.3601C12.5907 12.625 12.5024 12.8899 12.3258 13.1548ZM11.8843 8.82812C12.0609 8.82812 12.1492 8.82812 12.3258 8.82812H12.4141C12.5024 8.82812 12.679 8.82812 12.8556 8.82812C12.5907 9.09302 12.5024 9.35792 12.3258 9.62283C12.2375 9.35792 12.0609 9.09302 11.8843 8.82812ZM12.3258 8.21002C11.9726 8.21002 11.7077 8.12172 11.4428 7.94512C11.2662 7.68022 11.0896 7.41532 11.0896 6.97382C11.0896 5.82592 11.7077 4.85461 12.3258 4.14821C12.9439 4.85461 13.562 5.82592 13.562 6.97382C13.562 7.41532 13.3854 7.68022 13.2088 7.85682C13.0322 8.03342 12.679 8.21002 12.3258 8.21002ZM15.4163 18.0996C14.7099 18.806 13.6503 19.0709 12.8556 19.0709C12.8556 18.2762 13.1205 17.2166 13.8269 16.5102C14.5333 15.8038 15.5929 15.5389 16.3876 15.5389C16.3876 16.3336 16.1227 17.3932 15.4163 18.0996ZM15.4163 14.2144C14.7099 14.9208 13.6503 15.1857 12.8556 15.1857C12.9439 14.3027 13.1205 13.3314 13.8269 12.625C14.5333 11.9186 15.5929 11.6537 16.3876 11.6537C16.3876 12.4484 16.1227 13.508 15.4163 14.2144ZM15.4163 10.3292C14.7099 11.0356 13.6503 11.3005 12.8556 11.3005C12.8556 10.5058 13.1205 9.44622 13.8269 8.73982C14.5333 8.03342 15.5929 7.76852 16.3876 7.76852C16.3876 8.56322 16.1227 9.62283 15.4163 10.3292Z" fill="#464542"/>
</svg>
