<svg width="24" height="24" viewBox="0 0 24 24" fill="none" xmlns="http://www.w3.org/2000/svg">
<path fill-rule="evenodd" clip-rule="evenodd" d="M11.6139 0.845832C11.8309 0.640094 12.171 0.640094 12.388 0.845832C13.2709 1.68296 14.5635 3.29451 14.5635 5.27403V5.3339C14.5626 5.39855 14.5596 5.46214 14.5547 5.52463C15.5215 5.14941 16.5202 5.07337 17.2165 5.0917C17.5156 5.09957 17.7562 5.34015 17.764 5.6392C17.7902 6.63325 17.6241 8.24332 16.6698 9.49756C16.8663 9.48835 17.05 9.48734 17.2165 9.49172C17.5156 9.49959 17.7562 9.74017 17.764 10.0392C17.7902 11.0333 17.6241 12.6433 16.6699 13.8975C16.8663 13.8883 17.0501 13.8873 17.2165 13.8917C17.5156 13.8995 17.7562 14.1401 17.764 14.4392C17.7934 15.5536 17.581 17.4422 16.2875 18.7357C15.1955 19.8277 13.6793 20.1492 12.563 20.2052V22.746C12.563 23.0567 12.3111 23.3085 12.0005 23.3085C11.6898 23.3085 11.438 23.0567 11.438 22.746V20.2051C10.3218 20.1488 8.80677 19.8271 7.71539 18.7357C6.42186 17.4422 6.20951 15.5536 6.23883 14.4392C6.2467 14.1401 6.48728 13.8995 6.78634 13.8917C6.95292 13.8873 7.13678 13.8883 7.33338 13.8975C6.37972 12.6436 6.21713 11.0365 6.24326 10.0434C6.25113 9.74429 6.49171 9.50371 6.79077 9.49584C6.95699 9.49147 7.14042 9.49247 7.33654 9.50164C6.38008 8.24713 6.2171 6.63753 6.24326 5.64332C6.25113 5.34427 6.49171 5.10369 6.79077 5.09582C7.4858 5.07753 8.48199 5.15324 9.44714 5.52663C9.44222 5.46321 9.43932 5.39867 9.4385 5.33303L9.43841 5.32603L9.43846 5.27403C9.43846 3.29451 10.731 1.68296 11.6139 0.845832ZM11.9617 7.81728C11.9757 7.84617 11.9893 7.87514 12.0027 7.90417C12.016 7.87511 12.0297 7.84611 12.0436 7.81719C12.0289 7.81741 12.0142 7.81753 11.9995 7.81753C11.9869 7.81753 11.9743 7.81745 11.9617 7.81728ZM11.4292 10.2782C11.3708 9.3267 11.0886 8.16466 10.2918 7.36787C9.49389 6.56994 8.32967 6.28806 7.37737 6.2302C7.43439 7.18195 7.71378 8.34284 8.51132 9.14038C9.31022 9.93928 10.4763 10.2209 11.4292 10.2782ZM11.9459 11.4139C11.7977 11.4164 11.6369 11.4146 11.4666 11.4066C11.6836 11.6912 11.86 11.9942 12.0027 12.3042C12.1451 11.9942 12.3211 11.6912 12.5377 11.4065C12.3674 11.4144 12.2066 11.4163 12.0584 11.4138C12.0209 11.4176 11.9832 11.4176 11.9459 11.4139ZM12.5778 10.2779C13.5301 10.22 14.6941 9.9381 15.492 9.14025C16.2898 8.34241 16.5717 7.17835 16.6296 6.2261C15.6774 6.284 14.5133 6.5659 13.7155 7.36375C12.9176 8.1616 12.6357 9.32565 12.5778 10.2779ZM11.4292 14.6783C11.3708 13.7267 11.0886 12.5647 10.2918 11.7679C9.49389 10.97 8.32968 10.6881 7.37737 10.6302C7.4344 11.582 7.71378 12.7429 8.51132 13.5404C9.31022 14.3393 10.4763 14.6209 11.4292 14.6783ZM11.9459 15.8139C11.7973 15.8164 11.6361 15.8146 11.4654 15.8066C11.6825 16.0921 11.8589 16.396 12.0014 16.7069C12.144 16.396 12.3204 16.092 12.5376 15.8065C12.3673 15.8145 12.2066 15.8163 12.0584 15.8138C12.0209 15.8176 11.9832 15.8176 11.9459 15.8139ZM12.5778 14.6779C13.5301 14.62 14.6941 14.3381 15.492 13.5403C16.2898 12.7424 16.5717 11.5784 16.6296 10.6261C15.6774 10.684 14.5133 10.9659 13.7155 11.7638C12.9176 12.5616 12.6357 13.7257 12.5778 14.6779ZM11.425 19.0779C11.3671 18.1256 11.0852 16.9616 10.2874 16.1637C9.48954 15.3659 8.32549 15.084 7.37324 15.0261C7.43114 15.9783 7.71304 17.1424 8.51089 17.9402C9.30873 18.7381 10.4728 19.02 11.425 19.0779ZM12.5778 19.0779C13.5301 19.02 14.6941 18.7381 15.492 17.9402C16.2898 17.1424 16.5717 15.9783 16.6296 15.0261C15.6774 15.084 14.5133 15.3659 13.7155 16.1637C12.9176 16.9616 12.6357 18.1256 12.5778 19.0779ZM12.001 2.05878C11.2862 2.84948 10.5635 3.99886 10.5635 5.27403V5.32221C10.5703 5.80712 10.7543 6.1339 11.0013 6.34637C11.2596 6.56868 11.6198 6.69253 11.9995 6.69253C12.3791 6.69253 12.7397 6.56868 12.9987 6.34613C13.2463 6.13343 13.4308 5.80656 13.4385 5.32184V5.2744C13.4385 3.99923 12.7157 2.84948 12.001 2.05878Z" fill="#464542"/>
</svg>
