<svg width="12" height="24" viewBox="0 0 12 24" fill="none" xmlns="http://www.w3.org/2000/svg">
<path fill-rule="evenodd" clip-rule="evenodd" d="M5.61394 0.845832C5.83094 0.640094 6.17098 0.640094 6.38797 0.845832C7.27092 1.68296 8.56346 3.29451 8.56346 5.27403V5.3339C8.56255 5.39855 8.55957 5.46214 8.55469 5.52463C9.52154 5.14941 10.5202 5.07337 11.2165 5.0917C11.5156 5.09957 11.7562 5.34015 11.764 5.6392C11.7902 6.63325 11.6241 8.24332 10.6698 9.49756C10.8663 9.48835 11.05 9.48734 11.2165 9.49172C11.5156 9.49959 11.7562 9.74017 11.764 10.0392C11.7902 11.0333 11.6241 12.6433 10.6699 13.8975C10.8663 13.8883 11.0501 13.8873 11.2165 13.8917C11.5156 13.8995 11.7562 14.1401 11.764 14.4392C11.7934 15.5536 11.581 17.4422 10.2875 18.7357C9.19546 19.8277 7.67935 20.1492 6.56297 20.2052V22.746C6.56297 23.0567 6.31113 23.3085 6.00047 23.3085C5.68981 23.3085 5.43797 23.0567 5.43797 22.746V20.2051C4.32177 20.1488 2.80677 19.8271 1.71539 18.7357C0.421859 17.4422 0.209508 15.5536 0.238834 14.4392C0.246704 14.1401 0.487282 13.8995 0.786342 13.8917C0.952916 13.8873 1.13678 13.8883 1.33338 13.8975C0.37972 12.6436 0.217129 11.0365 0.243263 10.0434C0.251133 9.74429 0.491711 9.50371 0.790771 9.49584C0.956987 9.49147 1.14042 9.49247 1.33654 9.50164C0.380079 8.24713 0.2171 6.63753 0.243263 5.64332C0.251133 5.34427 0.491711 5.10369 0.790771 5.09582C1.4858 5.07753 2.48199 5.15324 3.44714 5.52663C3.44222 5.46321 3.43932 5.39867 3.4385 5.33303L3.43841 5.32603L3.43846 5.27403C3.43846 3.29451 4.731 1.68296 5.61394 0.845832ZM5.96173 7.81728C5.97568 7.84617 5.98934 7.87514 6.0027 7.90417C6.01604 7.87511 6.02969 7.84611 6.04363 7.81719C6.02889 7.81741 6.01417 7.81753 5.99946 7.81753C5.98689 7.81753 5.97431 7.81745 5.96173 7.81728ZM5.42924 10.2782C5.37083 9.3267 5.08861 8.16466 4.29182 7.36787C3.49389 6.56994 2.32967 6.28806 1.37737 6.2302C1.43439 7.18195 1.71378 8.34284 2.51132 9.14038C3.31022 9.93928 4.47629 10.2209 5.42924 10.2782ZM5.94592 11.4139C5.7977 11.4164 5.63694 11.4146 5.46662 11.4066C5.68365 11.6912 5.86001 11.9942 6.0027 12.3042C6.14506 11.9942 6.32106 11.6912 6.53766 11.4065C6.36738 11.4144 6.20665 11.4163 6.05844 11.4138C6.02086 11.4176 5.98316 11.4176 5.94592 11.4139ZM6.57783 10.2779C7.53008 10.22 8.69413 9.9381 9.49198 9.14025C10.2898 8.34241 10.5717 7.17835 10.6296 6.2261C9.67738 6.284 8.51332 6.5659 7.71548 7.36375C6.91763 8.1616 6.63573 9.32565 6.57783 10.2779ZM5.42924 14.6783C5.37083 13.7267 5.08861 12.5647 4.29182 11.7679C3.49389 10.97 2.32968 10.6881 1.37737 10.6302C1.4344 11.582 1.71378 12.7429 2.51132 13.5404C3.31022 14.3393 4.47629 14.6209 5.42924 14.6783ZM5.94592 15.8139C5.79734 15.8164 5.63615 15.8146 5.46536 15.8066C5.68253 16.0921 5.85889 16.396 6.00144 16.7069C6.144 16.396 6.32038 16.092 6.53759 15.8065C6.36734 15.8145 6.20663 15.8163 6.05844 15.8138C6.02086 15.8176 5.98316 15.8176 5.94592 15.8139ZM6.57783 14.6779C7.53008 14.62 8.69413 14.3381 9.49198 13.5403C10.2898 12.7424 10.5717 11.5784 10.6296 10.6261C9.67738 10.684 8.51332 10.9659 7.71548 11.7638C6.91763 12.5616 6.63573 13.7257 6.57783 14.6779ZM5.42504 19.0779C5.36714 18.1256 5.08524 16.9616 4.28739 16.1637C3.48954 15.3659 2.32549 15.084 1.37324 15.0261C1.43114 15.9783 1.71304 17.1424 2.51089 17.9402C3.30873 18.7381 4.47279 19.02 5.42504 19.0779ZM6.57783 19.0779C7.53008 19.02 8.69413 18.7381 9.49198 17.9402C10.2898 17.1424 10.5717 15.9783 10.6296 15.0261C9.67738 15.084 8.51332 15.3659 7.71548 16.1637C6.91763 16.9616 6.63573 18.1256 6.57783 19.0779ZM6.00096 2.05878C5.28624 2.84948 4.56346 3.99886 4.56346 5.27403V5.32221C4.5703 5.80712 4.75429 6.1339 5.00125 6.34637C5.25965 6.56868 5.61979 6.69253 5.99946 6.69253C6.37911 6.69253 6.73967 6.56868 6.99869 6.34613C7.24625 6.13343 7.43076 5.80656 7.43846 5.32184V5.2744C7.43846 3.99923 6.71568 2.84948 6.00096 2.05878Z" fill="#464542"/>
</svg>
