<svg width="32" height="32" viewBox="0 0 32 32" fill="none" xmlns="http://www.w3.org/2000/svg">
<path d="M15.9961 20.3335C14.5775 20.3708 12.3215 20.0882 10.8175 18.5842C9.31347 17.0802 9.03613 14.8295 9.07347 13.4108C10.4921 13.3735 12.7481 13.6562 14.2521 15.1602C15.7561 16.6642 16.0388 18.9202 16.0015 20.3388L15.9961 20.3335Z" stroke="#464542" stroke-width="1.5" stroke-linejoin="round"/>
<path d="M16.007 20.3333C17.4257 20.3707 19.6817 20.088 21.1857 18.584C22.6897 17.08 22.9723 14.824 22.935 13.4053C21.5163 13.368 19.2603 13.6507 17.7563 15.1547C16.2523 16.6587 15.9697 18.9147 16.007 20.3333Z" stroke="#464542" stroke-width="1.5" stroke-linejoin="round"/>
<path d="M15.9956 26.1999C14.5769 26.2372 12.3209 25.9546 10.8169 24.4506C9.31289 22.9466 9.03023 20.6906 9.06756 19.2719C10.4862 19.2346 12.7422 19.5172 14.2462 21.0212C15.7502 22.5252 16.0329 24.7812 15.9956 26.1999Z" stroke="#464542" stroke-width="1.5" stroke-linejoin="round"/>
<path d="M16.007 26.1999C17.4257 26.2372 19.6817 25.9546 21.1857 24.4506C22.6897 22.9466 22.9723 20.6906 22.935 19.2719C21.5163 19.2346 19.2603 19.5172 17.7563 21.0212C16.2523 22.5252 15.9697 24.7812 16.007 26.1999Z" stroke="#464542" stroke-width="1.5" stroke-linejoin="round"/>
<path d="M15.9961 14.4668C14.5775 14.5041 12.3215 14.2215 10.8175 12.7175C9.31347 11.2135 9.03613 8.96279 9.07347 7.54412C10.4921 7.50679 12.7481 7.78946 14.2521 9.29346C15.7561 10.7975 16.0388 13.0535 16.0015 14.4721L15.9961 14.4668Z" stroke="#464542" stroke-width="1.5" stroke-linejoin="round"/>
<path d="M16.007 14.4666C17.4257 14.504 19.6817 14.2213 21.1857 12.7173C22.6897 11.2133 22.9723 8.9573 22.935 7.53863C21.5163 7.5013 19.2603 7.78396 17.7563 9.28796C16.2523 10.792 15.9697 13.048 16.007 14.4666Z" stroke="#464542" stroke-width="1.5" stroke-linejoin="round"/>
<path d="M13.334 7.10133C13.3767 10.5307 18.6193 10.5307 18.6673 7.10133C18.6673 7.08 18.6673 7.05333 18.6673 7.032C18.6673 4.70666 17.1313 2.744 16.0007 1.672C14.87 2.744 13.334 4.70666 13.334 7.032C13.334 7.05333 13.334 7.08 13.334 7.10133Z" stroke="#464542" stroke-width="1.5" stroke-linejoin="round"/>
<path d="M16 30.3279V26.0613" stroke="#464542" stroke-width="1.5" stroke-linecap="round" stroke-linejoin="round"/>
</svg>
