<svg width="24" height="24" viewBox="0 0 24 24" fill="none" xmlns="http://www.w3.org/2000/svg">
<g clip-path="url(#clip0_3052_9591)">
<path fillRule="evenodd" clipRule="evenodd" d="M9.28119 5.12194C10.6736 2.71025 14.1546 2.71025 15.5469 5.12194L21.924 16.1673C23.3164 18.579 21.5759 21.5936 18.7911 21.5936H6.037C3.25222 21.5936 1.51173 18.579 2.90412 16.1673L9.28119 5.12194ZM13.7567 6.15552C13.16 5.12194 11.6681 5.12194 11.0714 6.15552L4.69433 17.2009C4.09759 18.2345 4.84352 19.5265 6.037 19.5265H18.7911C19.9846 19.5265 20.7305 18.2345 20.1338 17.2009L13.7567 6.15552Z" fill="#ED9135"/>
<circle cx="12.4142" cy="16.4994" r="1.13657" fill="#ED9135"/>
<path fillRule="evenodd" clipRule="evenodd" d="M12.4141 8.95837C12.9849 8.95837 13.4477 9.42112 13.4477 9.99196V13.0927C13.4477 13.6635 12.9849 14.1263 12.4141 14.1263C11.8432 14.1263 11.3805 13.6635 11.3805 13.0927V9.99196C11.3805 9.42112 11.8432 8.95837 12.4141 8.95837Z" fill="#ED9135"/>
</g>
<defs>
<clipPath id="clip0_3052_9591">
<rect width="20" height="20" fill="white" transform="translate(2.41406 2.45349)"/>
</clipPath>
</defs>
</svg>
