<svg width="24" height="24" viewBox="0 0 24 24" fill="none" xmlns="http://www.w3.org/2000/svg">
<path fillRule="evenodd" clipRule="evenodd" d="M21.8946 16.2494L15.5065 5.22671C14.1286 2.78417 10.6214 2.78417 9.24354 5.22671L2.85537 16.2494C1.47753 18.692 3.23114 21.6982 5.98683 21.6982H18.7632C21.5189 21.6982 23.2725 18.692 21.8946 16.2494ZM11.1224 9.42286C11.1224 8.73394 11.6861 8.17028 12.375 8.17028C13.0639 8.17028 13.6276 8.73394 13.6276 9.42286V13.1806C13.6276 13.8695 13.0639 14.4332 12.375 14.4332C11.6861 14.4332 11.1224 13.8695 11.1224 13.1806V9.42286ZM12.375 18.6293C11.6235 18.6293 10.9972 18.0031 10.9972 17.2515C10.9972 16.5 11.6235 15.8737 12.375 15.8737C13.1266 15.8737 13.7528 16.5 13.7528 17.2515C13.7528 18.0031 13.1266 18.6293 12.375 18.6293Z" fill="#ED9135"/>
</svg>
