<svg width="24" height="24" viewBox="0 0 24 24" fill="none" xmlns="http://www.w3.org/2000/svg">
<path fill-rule="evenodd" clip-rule="evenodd" d="M9.28119 4.98168C10.6736 2.56999 14.1546 2.56999 15.5469 4.98168L21.924 16.0271C23.3164 18.4388 21.5759 21.4534 18.7911 21.4534H6.037C3.25222 21.4534 1.51173 18.4388 2.90412 16.0271L9.28119 4.98168ZM13.7567 6.01526C13.16 4.98168 11.6681 4.98168 11.0714 6.01526L4.69433 17.0607C4.09759 18.0942 4.84352 19.3862 6.037 19.3862H18.7911C19.9846 19.3862 20.7305 18.0942 20.1338 17.0607L13.7567 6.01526Z" fill="#ED9135"/>
<circle cx="12.4142" cy="16.3591" r="1.13657" fill="#ED9135"/>
<path fill-rule="evenodd" clip-rule="evenodd" d="M12.4141 8.81812C12.9849 8.81812 13.4477 9.28087 13.4477 9.8517V12.9524C13.4477 13.5233 12.9849 13.986 12.4141 13.986C11.8432 13.986 11.3805 13.5233 11.3805 12.9524V9.8517C11.3805 9.28087 11.8432 8.81812 12.4141 8.81812Z" fill="#ED9135"/>
</svg>
