<svg width="21" height="19" viewBox="0 0 21 19" fill="none" xmlns="http://www.w3.org/2000/svg">
<path fill-rule="evenodd" clip-rule="evenodd" d="M7.28119 2.12194C8.67358 -0.289751 12.1546 -0.289751 13.5469 2.12194L19.924 13.1673C21.3164 15.579 19.5759 18.5936 16.7911 18.5936H4.037C1.25222 18.5936 -0.488273 15.579 0.904117 13.1673L7.28119 2.12194ZM11.7567 3.15552C11.16 2.12194 9.66814 2.12194 9.0714 3.15552L2.69433 14.2009C2.09759 15.2345 2.84352 16.5265 4.037 16.5265H16.7911C17.9846 16.5265 18.7305 15.2345 18.1338 14.2009L11.7567 3.15552Z" fill="#ED9135"/>
<circle cx="10.4142" cy="13.4994" r="1.13657" fill="#ED9135"/>
<path fill-rule="evenodd" clip-rule="evenodd" d="M10.4141 5.95837C10.9849 5.95837 11.4477 6.42112 11.4477 6.99196V10.0927C11.4477 10.6635 10.9849 11.1263 10.4141 11.1263C9.84324 11.1263 9.38049 10.6635 9.38049 10.0927V6.99196C9.38049 6.42112 9.84324 5.95837 10.4141 5.95837Z" fill="#ED9135"/>
</svg>
