<svg width="95" height="30" viewBox="0 0 95 30" fill="none" xmlns="http://www.w3.org/2000/svg">
<path d="M9.90788 9.90214H12.8387V22.9004H9.90788V21.5391C8.70614 22.6957 7.41362 23.274 6.03032 23.274C4.28391 23.274 2.84009 22.6246 1.69886 21.3256C0.566288 20 0 18.3452 0 16.3612C0 14.4128 0.566288 12.7891 1.69886 11.4902C2.83144 10.1913 4.24932 9.54182 5.95251 9.54182C7.42227 9.54182 8.74072 10.1646 9.90788 11.4101V9.90214ZM2.98274 16.3612C2.98274 17.6068 3.30695 18.621 3.95537 19.4039C4.62109 20.1957 5.45971 20.5916 6.47125 20.5916C7.55195 20.5916 8.42516 20.2091 9.09087 19.444C9.75658 18.6521 10.0894 17.6468 10.0894 16.4279C10.0894 15.2091 9.75658 14.2037 9.09087 13.4119C8.42516 12.6379 7.5606 12.2509 6.49718 12.2509C5.49429 12.2509 4.65567 12.6423 3.98131 13.4253C3.3156 14.2171 2.98274 15.1957 2.98274 16.3612Z" fill="black"/>
<path d="M27.6757 22.5934C27.6757 23.2073 27.6541 23.7456 27.6108 24.2082C27.5763 24.6797 27.5244 25.0934 27.4552 25.4493C27.2477 26.4279 26.8414 27.2687 26.2362 27.9715C25.095 29.3238 23.5258 30 21.5286 30C19.8427 30 18.4551 29.5329 17.3658 28.5988C16.2418 27.6379 15.5934 26.3078 15.4205 24.6085H18.3514C18.4638 25.2491 18.6496 25.7429 18.909 26.0899C19.5142 26.8995 20.3961 27.3043 21.5546 27.3043C23.69 27.3043 24.7578 25.9564 24.7578 23.2607V21.4457C23.5993 22.6646 22.2635 23.274 20.7505 23.274C19.0301 23.274 17.6208 22.6335 16.5228 21.3523C15.4162 20.0534 14.8629 18.4297 14.8629 16.4813C14.8629 14.5863 15.3773 12.976 16.4061 11.6504C17.5127 10.2447 18.9739 9.54182 20.7894 9.54182C22.3802 9.54182 23.703 10.1512 24.7578 11.3701V9.90214H27.6757V22.5934ZM24.8745 16.4279C24.8745 15.1646 24.546 14.1548 23.8889 13.3986C23.2232 12.6246 22.3716 12.2375 21.3341 12.2375C20.2275 12.2375 19.3543 12.6601 18.7145 13.5053C18.1352 14.2616 17.8456 15.2402 17.8456 16.4413C17.8456 17.6246 18.1352 18.5943 18.7145 19.3505C19.3456 20.1779 20.2188 20.5916 21.3341 20.5916C22.4494 20.5916 23.3312 20.1735 23.9797 19.3372C24.5762 18.581 24.8745 17.6112 24.8745 16.4279Z" fill="black"/>
<path d="M30.5619 9.90214H33.4798V11.0632C34.0159 10.4849 34.4914 10.089 34.9064 9.87544C35.33 9.65302 35.8314 9.54182 36.4107 9.54182C37.1802 9.54182 37.9842 9.79982 38.8228 10.3158L37.4871 13.0649C36.9338 12.6557 36.3934 12.4511 35.866 12.4511C34.2752 12.4511 33.4798 13.6877 33.4798 16.161V22.9004H30.5619V9.90214Z" fill="black"/>
<path d="M38.6034 16.3078C38.6034 14.4306 39.2561 12.8336 40.5616 11.5169C41.8671 10.2002 43.4579 9.54182 45.334 9.54182C47.2188 9.54182 48.8182 10.2046 50.1323 11.5302C51.4292 12.8559 52.0776 14.484 52.0776 16.4146C52.0776 18.363 51.4249 19.9956 50.1194 21.3123C48.8052 22.6201 47.1928 23.274 45.2821 23.274C43.3888 23.274 41.8023 22.6068 40.5227 21.2722C39.2432 19.9555 38.6034 18.3007 38.6034 16.3078ZM41.5861 16.3612C41.5861 17.6601 41.9233 18.6877 42.5977 19.444C43.2893 20.2091 44.2014 20.5916 45.334 20.5916C46.4752 20.5916 47.3874 20.2135 48.0704 19.4573C48.7534 18.7011 49.0949 17.6913 49.0949 16.4279C49.0949 15.1646 48.7534 14.1548 48.0704 13.3986C47.3787 12.6335 46.4666 12.2509 45.334 12.2509C44.2187 12.2509 43.3153 12.6335 42.6236 13.3986C41.932 14.1637 41.5861 15.1512 41.5861 16.3612Z" fill="black"/>
<path d="M61.4548 12.1174L59.0427 13.4386C58.6623 12.6379 58.1911 12.2375 57.6291 12.2375C57.3611 12.2375 57.132 12.331 56.9418 12.5178C56.7516 12.6957 56.6565 12.927 56.6565 13.2117C56.6565 13.71 57.2185 14.2037 58.3424 14.6931C59.89 15.3781 60.9317 16.0098 61.4678 16.5881C62.0038 17.1664 62.2718 17.9448 62.2718 18.9235C62.2718 20.1779 61.8222 21.2278 60.9231 22.073C60.0499 22.8737 58.9951 23.274 57.7588 23.274C55.6406 23.274 54.1406 22.2109 53.2588 20.0845L55.7487 18.8968C56.0945 19.5196 56.3582 19.9155 56.5398 20.0845C56.8942 20.4226 57.3179 20.5916 57.8107 20.5916C58.7963 20.5916 59.2891 20.129 59.2891 19.2037C59.2891 18.6699 58.9087 18.1717 58.1479 17.7091C57.8539 17.5578 57.56 17.411 57.266 17.2687C56.9721 17.1263 56.6738 16.9795 56.3712 16.8283C55.5239 16.4012 54.9274 15.9742 54.5815 15.5472C54.1406 15.0044 53.9201 14.3061 53.9201 13.452C53.9201 12.3221 54.2962 11.3879 55.0484 10.6495C55.8179 9.91103 56.7516 9.54182 57.8496 9.54182C59.4663 9.54182 60.6681 10.4004 61.4548 12.1174Z" fill="#2C7A4D"/>
<path d="M67.1293 12.7046V22.9004H64.1984V12.7046H63.1609V9.90214H64.1984V4.88434C64.1984 3.24733 64.4751 2.09075 65.0284 1.41459C65.7892 0.47153 66.8958 0 68.3483 0C68.867 0 69.5198 0.155694 70.3065 0.467082V3.53648L70.0083 3.37633C69.3771 3.04715 68.8584 2.88256 68.4521 2.88256C67.9333 2.88256 67.5832 3.07384 67.4016 3.45641C67.2201 3.83007 67.1293 4.55071 67.1293 5.61833V9.90214H70.3065V12.7046H67.1293Z" fill="#2C7A4D"/>
<path d="M80.922 9.90214H83.8528V22.9004H80.922V21.5391C79.7202 22.6957 78.4277 23.274 77.0444 23.274C75.298 23.274 73.8542 22.6246 72.713 21.3256C71.5804 20 71.0141 18.3452 71.0141 16.3612C71.0141 14.4128 71.5804 12.7891 72.713 11.4902C73.8455 10.1913 75.2634 9.54182 76.9666 9.54182C78.4364 9.54182 79.7548 10.1646 80.922 11.4101V9.90214ZM73.9968 16.3612C73.9968 17.6068 74.3211 18.621 74.9695 19.4039C75.6352 20.1957 76.4738 20.5916 77.4853 20.5916C78.5661 20.5916 79.4393 20.2091 80.105 19.444C80.7707 18.6521 81.1035 17.6468 81.1035 16.4279C81.1035 15.2091 80.7707 14.2037 80.105 13.4119C79.4393 12.6379 78.5747 12.2509 77.5113 12.2509C76.5084 12.2509 75.6698 12.6423 74.9954 13.4253C74.3297 14.2171 73.9968 15.1957 73.9968 16.3612ZM73.2576 5.76512C73.2576 5.24911 73.4392 4.80872 73.8023 4.44395C74.1654 4.07028 74.602 3.88345 75.1121 3.88345C75.6222 3.88345 76.0588 4.07028 76.4219 4.44395C76.7851 4.80872 76.9666 5.25356 76.9666 5.77847C76.9666 6.31228 76.7851 6.76601 76.4219 7.13968C76.0415 7.50445 75.6049 7.68683 75.1121 7.68683C74.5934 7.68683 74.1525 7.5 73.7893 7.12633C73.4349 6.73488 73.2576 6.28114 73.2576 5.76512ZM78.6784 5.76512C78.6784 5.24911 78.86 4.80872 79.2231 4.44395C79.5949 4.07028 80.0315 3.88345 80.5329 3.88345C81.0517 3.88345 81.4883 4.07028 81.8427 4.44395C82.2059 4.80872 82.3874 5.25356 82.3874 5.77847C82.3874 6.31228 82.2059 6.76601 81.8427 7.13968C81.4623 7.50445 81.0257 7.68683 80.5329 7.68683C80.0228 7.68683 79.5862 7.5 79.2231 7.12633C78.86 6.75267 78.6784 6.29893 78.6784 5.76512Z" fill="#2C7A4D"/>
<path d="M86.7391 9.90214H89.657V11.0632C90.193 10.4849 90.6685 10.089 91.0835 9.87544C91.5072 9.65302 92.0086 9.54182 92.5879 9.54182C93.3573 9.54182 94.1614 9.79982 95 10.3158L93.6643 13.0649C93.1109 12.6557 92.5706 12.4511 92.0432 12.4511C90.4524 12.4511 89.657 13.6877 89.657 16.161V22.9004H86.7391V9.90214Z" fill="#2C7A4D"/>
</svg>
