<?xml version="1.0" encoding="UTF-8"?>
<svg width="97" height="30" version="1.0" viewBox="0 0 1044 322" xmlns="http://www.w3.org/2000/svg">
<g transform="translate(0 322) scale(.1 -.1)">
<path d="m10107 3213c-4-3-7-272-7-597v-590l-37 36c-62 58-132 100-217 130-68 23-97 28-181 28-186 0-319-54-444-179-42-43-91-103-110-135-49-81-89-202-103-306l-12-90h-102-103l-6 35c-3 19-7 52-10 73-30 205-192 423-387 521-117 58-216 81-353 81s-235-23-355-82c-108-53-246-186-306-293-65-118-87-208-87-360 1-112 4-143 27-220 76-253 268-440 521-506 103-26 268-28 375-4 213 48 406 199 500 390 39 79 70 184 70 238v27h110c123 0 112 8 124-87 10-72 54-195 93-263 21-36 72-99 113-141 120-120 266-181 440-182 143 0 261 39 375 126l60 45 5-66 5-67 163-3 162-2v1225 1225h-158c-87 0-162-3-165-7zm-1916-1312c137-53 232-179 254-338l7-53h-120-120l-12 29c-33 81-148 124-233 87-132-56-145-249-21-322 91-53 216-16 254 77l12 29h119 119l-6-27c-29-131-58-186-131-253-79-73-143-94-278-94s-199 21-278 94c-92 84-137 199-137 350 0 225 133 405 327 440 67 12 186 3 244-19zm1684-2c66-25 139-89 182-160 33-55 63-151 63-201v-28h-390-390v28c0 50 30 146 63 201 98 164 289 229 472 160zm245-501c0-29-29-117-53-163-50-96-121-156-218-186-238-74-451 65-504 329l-7 32h391c306 0 391-3 391-12z"/>
<path d="m510 2204c-211-55-383-224-461-452-33-94-33-101-34-262 0-143 3-176 23-244 73-252 251-434 482-492 86-22 229-22 305 0 81 24 164 67 229 121l56 45v-75-75h165 165v710 710h-165-165v-80-81l-61 51c-71 59-156 104-236 125-72 19-230 18-303-1zm397-320c83-40 132-90 174-179 88-185 57-424-73-561-121-129-336-151-484-52-211 142-243 520-60 716 117 125 284 154 443 76z"/>
<path d="m2096 2204c-163-39-318-169-400-335-69-141-89-226-89-394-1-116 3-155 22-225 84-314 323-511 621-513 146-1 261 39 383 131l67 51v-144c0-163-10-226-50-305-36-70-70-102-145-136-52-24-72-28-155-27-186 1-304 83-344 241l-12 47-164 3-163 3 6-54c8-82 51-194 103-270 78-114 206-203 349-242 94-26 284-31 386-11 247 50 430 222 496 466 15 59 17 144 20 883l4 817-163-2-163-3-6-146-51 45c-61 53-151 100-233 121-74 19-239 18-319-1zm329-289c202-53 317-262 285-516-19-156-102-280-223-334-114-52-266-44-367 20-82 52-148 157-170 273-17 87-8 241 19 311 77 202 255 298 456 246z"/>
<path d="m3838 2201c-50-20-130-75-163-111l-20-22-5 58-5 59-162 3-163 2v-710-710l163 2 162 3 6 445c4 324 9 456 18 485 45 137 116 195 239 195 57 0 80-5 128-30 32-16 59-28 60-27s34 67 73 145c55 109 69 147 61 157-6 7-41 26-78 41-90 37-242 44-314 15z"/>
<path d="m4811 2205c-72-16-188-68-254-114-104-71-215-209-264-326-76-181-65-442 26-623 168-333 548-485 918-367 212 67 391 241 467 454 30 82 31 93 31 246 0 141-3 168-23 229-79 234-250 408-477 483-68 22-101 27-220 29-96 2-160-1-204-11zm265-286c127-23 239-111 290-226 81-183 38-447-92-561-125-111-332-135-483-57-93 48-176 161-200 273-16 75-14 208 5 277 55 214 254 336 480 294z"/>
<path d="m6468 2201c-64-21-124-54-183-101l-40-32-5 59-5 58-162 3-163 2v-710-710l163 2 162 3 6 450c6 468 8 497 52 581 22 42 77 89 124 105 57 21 200 17 243-5 55-29 78-55 102-115 22-55 23-68 28-536l5-480 326-6-4 528c-4 570-3 562-60 687-47 101-158 188-282 221-82 21-234 19-307-4z"/>
</g>
</svg>